<svg xmlns="http://www.w3.org/2000/svg" viewBox="0 0 1013.77 192.25"><defs><style>.cls-1{fill:none;stroke:#fff;}</style></defs><title>logo main</title><g id="Layer_2" data-name="Layer 2"><g id="Layer_1-2" data-name="Layer 1"><path class="cls-1" d="M.91,191.28l-.24-.48c6.7-3.47,11.48-9.57,11.48-62.8V63.88C12.15,10.64,7.37,4.54.67,1.07L.91.59C10,3.1,16.34,4.06,24.23,4.06s17.11-3,24.41-3c23.21,0,36.72,5.38,36.72,18.54,0,11.13-6.1,20.58-6.1,31.46,0,22.14,10.53,32.66,10.53,44.39s-9.33,23.68-9.33,45.34C80.46,151.68,89,159,89,169.27,89,185.78,73.88,191,49.12,191c-7.06,0-15.79-3.23-23.69-3.23h-1.2C16.34,187.81,10,188.77.91,191.28ZM62.64,179c0-9.09-11.85-19.5-11.85-36.13,0-34.81,34.93-31.34,34.93-47.13,0-16.27-35.53-19.5-35.53-46.78,0-16.51,11.37-26.91,11.37-36,0-6-3.23-8.25-12.44-8.25-7.18,0-11.49,3.11-11.49,56.22V130c0,48.81,3.11,57.3,11.73,57.3C59.17,187.33,62.64,185.18,62.64,179Z"/><path class="cls-1" d="M167.07,3.82a17.5,17.5,0,0,0,9.81-2.75l.59.36C171.73,9.56,168,22,168,41.38c0,16.87,0,27.88,1.2,39.36h-1.55c-3.47-25.6-9.46-48.33-14.48-62.56-4.19-9.45-8-13.64-13.28-13.64-9.93,0-10.53,7.3-10.53,86.73,13.76-3.59,15.08-10.41,21.54-50.72h1.43c-2.63,32.9-3.47,73,0,107.78h-1.43c-6.46-43.54-7.78-51.08-21.54-54.55,0,81.35.24,93.79,9.22,93.79,5.62,0,9.45-4.42,14-14.23a391.06,391.06,0,0,0,17.47-71.78h1.67a422,422,0,0,0-2.87,50.24c0,18.43,2.27,31.35,6.82,39l-.36.24a18,18,0,0,0-9.81-2.75c-7.42,0-15.67,2.75-26.08,2.75-23.56,0-40.07-12.32-40.07-97.26,0-81.35,17.22-92.71,38.52-92.71C149.48,1.07,158.81,3.82,167.07,3.82Z"/><path class="cls-1" d="M209.77,180.51c0,2.87,2.39,4.55,8.14,4.55,7.41,0,12-3,16.62-12.2,6-16.39,10.89-40.44,15.2-70h1.55c-1.31,13.64-1.07,26.68-1.07,46.06,0,20.58,4.06,33.62,9.33,41.75l-.36.36c-3.23-2.15-6.46-3.23-14.12-3.23H185.73c-4.07,0-4.67-1-4.67-2.75s1-5.14,2.27-9.45L222.21,32.77c3.23-10.65,5.15-17.22,5.15-21.41,0-2.87-1.08-4.55-4.55-4.55-4.07,0-6.94,2.87-11,11.13-5.74,15.55-11.36,39.48-16.26,68.43H194c1.2-13,1.2-25.25,1.2-43.55,0-19.14-3.35-32.78-9.21-41.51l.35-.24c3.23,2,6.58,3,14,3h52c4.78,0,5.62,1,5.62,2.87a26.81,26.81,0,0,1-1.31,6.82L214.44,162.57C211.33,172.74,209.77,177.52,209.77,180.51Z"/><path class="cls-1" d="M300.44,191.28l-.24-.48c6.23-3.23,12.09-9.57,14.36-58.38l4.79-115.2c.83-10.41,4.42-16.15,14.95-16.15s19.5,4.19,20.22,22.73c.24,4.9,3.94,144.27,4.3,149.54.6,8.13,3.23,10,6.82,10,4.19,0,6.34-3.11,6.46-12.08,0-5,2-147.62,2-152.64.23-13.76,4.66-17.59,15.79-17.59,12.2,0,17.7,6.82,18.54,18.66l5.86,108.15c3,52.27,8.14,59.45,15.07,62.92l-.12.48c-10.52-3-18.3-3.47-27.51-3.47a80.57,80.57,0,0,0-24.88,3.47l-.24-.48c6.7-3.23,10.64-7.42,10.64-62.8V18.18c0-7.54-1.19-10.29-4.18-10.29S378.32,10,378.2,18.42c0,5.5-.83,148.58-.83,151.09-.12,14.83-5.63,20.21-20.22,20.21s-19.62-4.42-20.46-18.78c-.24-2.51-4.54-151.81-4.54-153.72-.48-7.42-1.92-9.33-4.55-9.33s-4.31,2.75-4.19,10.05l-.12,114.36c.12,44.86,5.86,54.08,14,58.5l-.24.48c-8-2.27-13.16-3.47-20-3.47C311.45,187.81,307.5,188.77,300.44,191.28Z"/><path class="cls-1" d="M462.06,190.68c-7.3,0-10.17-2.51-16.15-2.51-5.51,0-9.69,1-17,3.47l-.24-.48c6.58-3.47,11.48-9.69,16-63.28l7.9-106.23c2.27-16.63,6-20.22,16.86-20.22,12.33,0,18.79,5.62,20.46,18.42l8.49,108c4.07,51.68,9.57,60.05,16,63.28l-.23.48a94.38,94.38,0,0,0-26.8-3.47C478.69,188.17,470.79,190.68,462.06,190.68Zm-8.26-62.44c-.12,4.54-.24,8.73-.36,12.8h17.83c0-4.07-.12-8.38-.24-13L468,17.94c-.36-5.51-2.27-8-5.39-8-3.34,0-5.38,2.16-5.74,11.61Zm17.47,22.61H453.44c.12,24.28,2.64,37.32,8.5,37.32C467,188.17,470.91,181.23,471.27,150.85Z"/><path class="cls-1" d="M530.6,55c0-12.2-6.22-23-6.22-35.41,0-13.16,12.2-18.54,32.78-18.54,11.6,0,19.62,2.75,27,2.75a17.07,17.07,0,0,0,9.33-2.75l.48.24c-5.27,8.13-8.86,22-8.86,41.39,0,16.87.12,27.16,1.08,38l-1.56.12C581.09,55.38,574,33.25,569.72,19.37c-4.67-10-10.17-14.71-15.19-14.71-4.07,0-6.34,1.79-6.34,7.18,0,9.33,11.36,20.21,11.36,37.08,0,27.28-35.41,30.51-35.41,46.78,0,15.79,34.81,12.32,34.81,47.13,0,16.63-11.84,27-11.84,36.13,0,6.46,4.43,8.49,15.07,8.49,11.61,0,16.39-4.42,16.39-11.72,0-8-9.69-23.45-9.69-43.79,0-30.5-4.3-34.33-11.24-37.44l.24-.48c9.09,2.39,15.31,3.35,23.09,3.35h1.19c7.42,0,13.16-1,21.77-3.35l.12.48c-5,3-9.69,6.22-9.69,37.2,0,23.21,4.31,38.41,5.63,59.34h-1.08c-5.62-21.53-13.4-42.83-18.06-42.83-1.56,0-2.16,1-2.16,3,0,5.51,3.47,17.35,3.47,24.41,0,8.73-5.74,15.43-20,15.43-25.36,0-41.27-5.26-41.27-21.77,0-10.29,8.5-17.59,8.5-28.47,0-21.54-9.34-33.74-9.34-45.34S530.6,75,530.6,55Z"/><path class="cls-1" d="M639,190.68c-7.3,0-10.17-2.51-16.15-2.51-5.5,0-9.69,1-17,3.47l-.23-.48c6.58-3.47,11.48-9.69,16-63.28l7.89-106.23C631.8,5,635.51,1.43,646.4,1.43c12.32,0,18.78,5.62,20.46,18.42l8.49,108c4.07,51.68,9.57,60.05,16,63.28l-.24.48a94.38,94.38,0,0,0-26.8-3.47C655.61,188.17,647.72,190.68,639,190.68Zm-8.25-62.44c-.12,4.54-.24,8.73-.36,12.8h17.82c0-4.07-.12-8.38-.24-13L645,17.94c-.36-5.51-2.27-8-5.38-8-3.35,0-5.38,2.16-5.74,11.61Zm17.46,22.61H630.37c.12,24.28,2.63,37.32,8.49,37.32C643.89,188.17,647.83,181.23,648.19,150.85Z"/><path class="cls-1" d="M721.88,180.51c0,2.87,2.4,4.55,8.14,4.55,7.41,0,12-3,16.63-12.2,6-16.39,10.88-40.44,15.19-70h1.55c-1.31,13.64-1.07,26.68-1.07,46.06,0,20.58,4.06,33.62,9.33,41.75l-.36.36c-3.23-2.15-6.46-3.23-14.12-3.23H697.84c-4.07,0-4.67-1-4.67-2.75s1-5.14,2.27-9.45L734.32,32.77c3.23-10.65,5.15-17.22,5.15-21.41,0-2.87-1.08-4.55-4.55-4.55-4.07,0-6.94,2.87-11,11.13-5.75,15.55-11.37,39.48-16.27,68.43h-1.56c1.2-13,1.2-25.25,1.2-43.55,0-19.14-3.35-32.78-9.21-41.51l.36-.24c3.23,2,6.57,3,14,3h52c4.79,0,5.62,1,5.62,2.87a26.81,26.81,0,0,1-1.31,6.82L726.55,162.57C723.44,172.74,721.88,177.52,721.88,180.51Z"/><path class="cls-1" d="M777,191.28l-.24-.48c6.7-3.47,11.48-9.57,11.48-62.8V63.88c0-53.24-4.78-59.34-11.48-62.81L777,.59c9.09,2.51,15.43,3.47,23.33,3.47h1.31c7.9,0,14.24-1,23.33-3.47l.24.48c-6.7,3.47-11.49,9.57-11.49,62.81v77.63c.84,40.8,5.27,46.18,11.37,49.29l-.24.48c-9.09-2.51-15.43-3.47-23.33-3.47h-1.19C792.46,187.81,786.12,188.77,777,191.28Z"/><path class="cls-1" d="M908.62,4.54c7.29,0,12.32-1.2,20.33-3.47l.24.6c-6.22,3.47-14,7.06-13,62.44l1.68,107.67c.48,13.76-6.58,19.26-20.1,19.26-15.31,0-23.09-5.14-25.36-19.86l-13.76-152c-1.31-7.77-3.35-9.69-6.94-9.69-3.94,0-6.46,4.07-4.9,12.68l5.38,110.78c3.11,50,7.66,53.71,15.79,57.9l-.24.48c-8.37-2.51-13.63-3.47-20.93-3.47-6.22,0-11.13.72-19.14,3.47l-.24-.48c6-3.35,14-9.09,14-58.14l.12-111.61c-.12-13.88,5.38-20,19.61-20,13.88,0,23.21,5.62,26,24.76L900.6,173.57c1.56,8.5,3.83,9.93,6.94,9.93,3.71,0,7.54-3.58,5.5-13.16l-7.17-106.7c-4.31-51.44-9.93-58.62-16.75-62l.12-.6C897.49,3.82,902.64,4.54,908.62,4.54Z"/><path class="cls-1" d="M1002.64,3.82a17.5,17.5,0,0,0,9.81-2.75l.6.36c-5.74,8.13-9.45,20.58-9.45,40,0,16.87,0,27.88,1.2,39.36h-1.56c-3.47-25.6-9.45-48.33-14.48-62.56-4.18-9.45-8-13.64-13.27-13.64-9.93,0-10.53,7.3-10.53,86.73,13.76-3.59,15.07-10.41,21.53-50.72h1.44c-2.63,32.9-3.47,73,0,107.78h-1.44C980,104.79,978.72,97.25,965,93.78c0,81.35.24,93.79,9.21,93.79,5.62,0,9.45-4.42,14-14.23a390.36,390.36,0,0,0,17.46-71.78h1.68a419.87,419.87,0,0,0-2.87,50.24c0,18.43,2.27,31.35,6.82,39l-.36.24a18,18,0,0,0-9.81-2.75c-7.42,0-15.67,2.75-26.08,2.75-23.57,0-40.08-12.32-40.08-97.26,0-81.35,17.23-92.71,38.52-92.71C985.06,1.07,994.39,3.82,1002.64,3.82Z"/></g></g></svg>