<svg xmlns="http://www.w3.org/2000/svg" viewBox="0 0 559.2 106.47"><defs><style>.cls-1{fill:none;stroke:#fff;}</style></defs><title>H4</title><g id="Layer_2" data-name="Layer 2"><g id="Layer_1-2" data-name="Layer 1"><path class="cls-1" d="M.8,105.66l-.13-.26C4.36,103.48,7,100.12,7,70.79V35.46C7,6.13,4.36,2.77.67.86L.8.59A44.16,44.16,0,0,0,13.65,2.5C18.07,2.5,23.08.86,27.1.86c12.79,0,20.24,3,20.24,10.21C47.34,17.2,44,22.41,44,28.41c0,12.19,5.8,18,5.8,24.45s-5.14,13-5.14,25c0,6,4.68,10,4.68,15.69,0,9.1-8.3,12-22,12-3.89,0-8.7-1.78-13-1.78h-.66A44.5,44.5,0,0,0,.8,105.66Zm34-6.79c0-5-6.52-10.74-6.52-19.91,0-19.18,19.24-17.27,19.24-26C47.53,44,28,42.25,28,27.22c0-9.1,6.26-14.83,6.26-19.84,0-3.3-1.78-4.55-6.86-4.55-3.95,0-6.32,1.72-6.32,31v38.1c0,26.89,1.71,31.57,6.46,31.57C32.9,103.48,34.81,102.3,34.81,98.87Z"/><path class="cls-1" d="M76.86.86C88.6.86,98.09,7.12,98.09,51.94c0,46.8-9.1,53.59-22.08,53.59-5.74,0-10.29-1.52-14.37-1.52a10,10,0,0,0-5.41,1.52l-.2-.13c2.51-4.22,3.76-11.34,3.76-21.49a231.5,231.5,0,0,0-1.58-27.69h.92a214.83,214.83,0,0,0,9.63,39.55c2.5,5.41,4.61,7.85,7.71,7.85,4.94,0,5.07-6.86,5.07-51.68C74,53.85,73.24,58,69.68,82h-.79c1.91-19.18,1.45-41.27,0-59.39h.79c3.56,22.21,4.28,26,11.86,28,0-43.77-.33-47.79-5.8-47.79-2.9,0-5,2.3-7.31,7.51a183,183,0,0,0-8,34.47h-.86c.66-6.32.66-12.39.66-21.68,0-10.68-2-17.53-5.2-22l.32-.19a9.65,9.65,0,0,0,5.41,1.51C65.33,2.37,70.47.86,76.86.86Z"/><path class="cls-1" d="M115.88,99.73c0,1.58,1.32,2.5,4.48,2.5,4.09,0,6.6-1.65,9.17-6.72,3.29-9,6-22.28,8.37-38.56h.86c-.73,7.51-.6,14.7-.6,25.38,0,11.33,2.24,18.52,5.14,23l-.19.2c-1.78-1.19-3.56-1.78-7.78-1.78h-32.7c-2.24,0-2.57-.53-2.57-1.52a23,23,0,0,1,1.26-5.2l21.42-78.71c1.78-5.86,2.83-9.49,2.83-11.8,0-1.58-.59-2.5-2.5-2.5-2.24,0-3.83,1.58-6.07,6.13-3.16,8.57-6.26,21.75-9,37.7h-.86c.66-7.18.66-13.91.66-24C107.84,13.31,106,5.8,102.77,1L103,.86c1.78,1.12,3.63,1.64,7.72,1.64h28.67c2.63,0,3.1.53,3.1,1.58a14.59,14.59,0,0,1-.73,3.76l-23.27,82C116.74,95.44,115.88,98.08,115.88,99.73Z"/><path class="cls-1" d="M165.84,105.66l-.13-.26c3.43-1.78,6.66-5.28,7.91-32.17l2.64-63.48C176.72,4,178.7.86,184.5.86s10.74,2.3,11.14,12.52c.13,2.7,2.17,79.49,2.37,82.39.33,4.48,1.78,5.54,3.76,5.54,2.3,0,3.49-1.71,3.56-6.66,0-2.77,1.12-81.34,1.12-84.11C206.58,3,209,.86,215.15.86c6.72,0,9.75,3.75,10.21,10.28l3.23,59.58c1.65,28.81,4.49,32.76,8.31,34.68l-.07.26a50.49,50.49,0,0,0-15.16-1.91A44.27,44.27,0,0,0,208,105.66l-.13-.26c3.69-1.78,5.87-4.09,5.87-34.61V10.28c0-4.15-.66-5.67-2.31-5.67s-2.64,1.19-2.7,5.8c0,3-.46,81.87-.46,83.25-.07,8.18-3.1,11.14-11.14,11.14s-10.81-2.44-11.27-10.35c-.14-1.38-2.51-83.64-2.51-84.7-.26-4.08-1.05-5.14-2.5-5.14s-2.38,1.52-2.31,5.54l-.07,63c.07,24.72,3.23,29.8,7.71,32.24l-.13.26c-4.41-1.25-7.25-1.91-11-1.91C171.91,103.75,169.73,104.28,165.84,105.66Z"/><path class="cls-1" d="M251.4,104a51.83,51.83,0,0,0-14.77,1.91l-.13-.27c3.56-1.78,6.59-6.39,8.83-34.87L250,11.2c.93-7,4.49-10.15,11.27-10.15,6,0,8.05,2,9.3,11.14l4.35,58.53c2.5,29.53,5.21,33,8.83,34.87l-.13.27c-4-1.39-6.33-1.91-9.36-1.91-3.3,0-4.88,1.38-8.9,1.38C260.56,105.33,256.21,104,251.4,104Zm16.81-91.82c-.2-5.21-1.32-6.4-3.17-6.4s-2.77,1.39-3,4.42l-1.65,60.64c-.07,2.57-.13,4.94-.13,7.19h9.82c-.07-2.25-.13-4.55-.2-7.06ZM265.44,104c3.23,0,4.61-7.19,4.68-20.57H260.3C260.49,100.12,262.67,104,265.44,104Z"/><path class="cls-1" d="M333.13,52.86c0,6.4-5.14,13.12-5.14,25,0,6,4.68,10,4.68,15.69,0,9.1-8.77,12-22.74,12-7.85,0-11-3.69-11-8.5,0-3.89,1.91-10.42,1.91-13.45,0-1.12-.33-1.65-1.18-1.65-2.57,0-6.86,11.73-10,23.6h-.59c.72-11.54,3.1-19.91,3.1-32.7,0-17.07-2.57-18.85-5.34-20.5l.06-.26a40.93,40.93,0,0,0,12,1.85h.66a46,46,0,0,0,12.72-1.85l.13.26c-3.82,1.72-6.19,3.83-6.19,20.64,0,11.2-5.34,19.7-5.34,24.12,0,4,2.63,6.46,9,6.46,5.86,0,8.3-1.12,8.3-4.68,0-5-6.52-10.74-6.52-19.91,0-19.18,19.18-17.27,19.18-26,0-9-19.51-10.74-19.51-25.77,0-9.29,6.26-15.29,6.26-20.43,0-3-1.25-4-3.49-4-2.77,0-5.8,2.57-8.37,8.11-2.38,7.65-6.27,19.84-8.24,33.88l-.86-.07c.53-6,.59-11.66.59-21,0-10.67-2-18.32-4.87-22.8l.26-.13a9.38,9.38,0,0,0,5.14,1.51c4.09,0,8.5-1.51,14.9-1.51,11.33,0,18.06,3,18.06,10.21,0,6.86-3.43,12.79-3.43,19.51C327.33,41.59,333.13,46.4,333.13,52.86Z"/><path class="cls-1" d="M352.38,105.33c-4,0-5.61-1.38-8.9-1.38-3,0-5.34.52-9.36,1.91l-.13-.27c3.62-1.91,6.32-5.34,8.83-34.87l4.35-58.53c1.25-9.16,3.29-11.14,9.29-11.14,6.79,0,10.35,3.1,11.27,10.15l4.68,59.52c2.25,28.48,5.28,33.09,8.84,34.87l-.14.27A51.72,51.72,0,0,0,366.35,104C361.54,104,357.19,105.33,352.38,105.33Zm-4.55-34.41c-.07,2.51-.13,4.81-.2,7.06h9.82c0-2.25-.06-4.62-.13-7.19l-1.65-60.64c-.2-3-1.25-4.42-3-4.42s-3,1.19-3.17,6.4Zm9.62,12.46h-9.82c.07,13.38,1.45,20.57,4.68,20.57C355.08,104,357.25,100.12,357.45,83.38Z"/><path class="cls-1" d="M398.05,99.73c0,1.58,1.32,2.5,4.49,2.5,4.08,0,6.59-1.65,9.16-6.72,3.29-9,6-22.28,8.37-38.56h.86c-.73,7.51-.6,14.7-.6,25.38,0,11.33,2.24,18.52,5.14,23l-.19.2c-1.78-1.19-3.56-1.78-7.78-1.78H384.8c-2.24,0-2.57-.53-2.57-1.52a23,23,0,0,1,1.26-5.2l21.42-78.71c1.78-5.86,2.83-9.49,2.83-11.8,0-1.58-.59-2.5-2.5-2.5-2.24,0-3.82,1.58-6.07,6.13-3.16,8.57-6.26,21.75-9,37.7h-.86c.66-7.18.66-13.91.66-24C390,13.31,388.17,5.8,384.94,1l.19-.13c1.78,1.12,3.63,1.64,7.72,1.64h28.67c2.64,0,3.1.53,3.1,1.58a14.59,14.59,0,0,1-.73,3.76l-23.27,82C398.91,95.44,398.05,98.08,398.05,99.73Z"/><path class="cls-1" d="M428.44,105.66l-.13-.26c3.69-1.92,6.32-5.28,6.32-34.61V35.46c0-29.33-2.63-32.69-6.32-34.6l.13-.27A44.16,44.16,0,0,0,441.29,2.5H442A44.16,44.16,0,0,0,454.87.59l.13.27c-3.69,1.91-6.33,5.27-6.33,34.6V78.24c.47,22.48,2.9,25.44,6.27,27.16l-.14.26A44.5,44.5,0,0,0,442,103.75h-.66A44.5,44.5,0,0,0,428.44,105.66Z"/><path class="cls-1" d="M478.2.86l.07.32C474.51,3,471.41,7,469,35.33l-4,58.79c-1.12,5.28,1,7.26,3,7.26,1.71,0,3-.8,3.82-5.48l7.45-81.4C480.91,4,486.05.86,493.69.86c7.85,0,10.88,3.36,10.81,11l.07,61.5c0,27,4.42,30.19,7.71,32l-.13.26a29.07,29.07,0,0,0-10.55-1.91,36.13,36.13,0,0,0-11.53,1.91l-.13-.26c4.48-2.31,7-4.35,8.7-31.91l3-61c.86-4.75-.52-7-2.7-7-2,0-3.1,1-3.82,5.34L487.5,94.59c-1.26,8.1-5.54,10.94-14,10.94-7.45,0-11.33-3-11.07-10.61l.92-59.33c.53-30.52-3.76-32.49-7.18-34.41l.13-.32c4.42,1.25,7.18,1.91,11.2,1.91A30.89,30.89,0,0,0,478.2.86Z"/><path class="cls-1" d="M552.75,2.37A9.65,9.65,0,0,0,558.16.86l.33.19c-3.17,4.49-5.21,11.34-5.21,22,0,9.29,0,15.36.66,21.68h-.86a183,183,0,0,0-8-34.47c-2.3-5.21-4.41-7.51-7.31-7.51-5.47,0-5.8,4-5.8,47.79,7.58-2,8.3-5.74,11.86-27.95h.79c-1.45,18.12-1.91,40.21,0,59.39h-.79c-3.56-24-4.28-28.15-11.86-30.06,0,44.82.13,51.68,5.07,51.68,3.1,0,5.21-2.44,7.71-7.85a214.83,214.83,0,0,0,9.63-39.55h.92a231.5,231.5,0,0,0-1.58,27.69c0,10.15,1.25,17.27,3.76,21.49l-.2.13a10,10,0,0,0-5.41-1.52c-4.08,0-8.63,1.52-14.37,1.52-13,0-22.08-6.79-22.08-53.59,0-44.82,9.49-51.08,21.23-51.08C543.06.86,548.2,2.37,552.75,2.37Z"/></g></g></svg>