<svg xmlns="http://www.w3.org/2000/svg" viewBox="0 0 559.04 106.47"><defs><style>.cls-1{fill:none;stroke:#fff;}</style></defs><title>H5</title><g id="Layer_2" data-name="Layer 2"><g id="Layer_1-2" data-name="Layer 1"><path class="cls-1" d="M36.62,103.75H36c-4.35,0-9.16,1.78-13,1.78-13.64,0-21.95-2.9-21.95-12,0-5.67,4.68-9.69,4.68-15.69C5.64,65.91.5,59.26.5,52.86S6.3,40.6,6.3,28.41c0-6-3.36-11.21-3.36-17.34C2.94,3.82,10.39.86,23.17.86c4,0,9,1.64,13.45,1.64A44.11,44.11,0,0,0,49.47.59l.14.27c-3.69,1.91-6.33,5.27-6.33,34.6V70.79c0,29.33,2.64,32.69,6.33,34.61l-.14.26A44.45,44.45,0,0,0,36.62,103.75Zm-13.84-.27c4.75,0,6.46-4.68,6.46-31.57V33.81c0-29.26-2.37-31-6.33-31-5.07,0-6.85,1.25-6.85,4.55,0,5,6.26,10.74,6.26,19.84C22.32,42.25,2.74,44,2.74,53,2.74,61.69,22,59.78,22,79c0,9.17-6.53,14.9-6.53,19.91C15.46,102.3,17.37,103.48,22.78,103.48Z"/><path class="cls-1" d="M92.19,2.37A9.61,9.61,0,0,0,97.59.86l.33.19c-3.16,4.49-5.21,11.34-5.21,22,0,9.29,0,15.36.66,21.68h-.86a183.12,183.12,0,0,0-8-34.47c-2.31-5.21-4.42-7.51-7.32-7.51-5.47,0-5.8,4-5.8,47.79,7.58-2,8.31-5.74,11.87-27.95h.79c-1.45,18.12-1.91,40.21,0,59.39h-.79C79.73,58,79,53.85,71.42,51.94c0,44.82.13,51.68,5.08,51.68,3.1,0,5.2-2.44,7.71-7.85a214.94,214.94,0,0,0,9.62-39.55h.93a231.2,231.2,0,0,0-1.59,27.69c0,10.15,1.26,17.27,3.76,21.49l-.2.13a9.92,9.92,0,0,0-5.4-1.52c-4.09,0-8.64,1.52-14.37,1.52-13,0-22.08-6.79-22.08-53.59C54.88,7.12,64.37.86,76.1.86,82.5.86,87.64,2.37,92.19,2.37Z"/><path class="cls-1" d="M124.75,89.84l-23.27-82a14.59,14.59,0,0,1-.73-3.76c0-1.05.46-1.58,3.1-1.58h28.67c4.09,0,5.94-.52,7.72-1.64l.19.13c-3.23,4.81-5.07,12.32-5.07,22.87,0,10.08,0,16.81.66,24h-.86c-2.7-16-5.8-29.13-9-37.7C124,5.6,122.37,4,120.13,4c-1.91,0-2.5.92-2.5,2.5,0,2.31,1.05,5.94,2.83,11.8L141.88,97a23,23,0,0,1,1.26,5.2c0,1-.33,1.52-2.58,1.52H107.87c-4.22,0-6,.59-7.78,1.78l-.19-.2c2.9-4.48,5.14-11.67,5.14-23,0-10.68.13-17.87-.6-25.38h.86c2.37,16.28,5.08,29.53,8.37,38.56,2.57,5.07,5.08,6.72,9.16,6.72,3.17,0,4.49-.92,4.49-2.5S126.46,95.44,124.75,89.84Z"/><path class="cls-1" d="M227.44,103.75c-3.76,0-6.59.66-11,1.91l-.13-.26c4.48-2.44,7.64-7.52,7.71-32.24l-.07-63c.07-4-.85-5.54-2.3-5.54s-2.24,1.06-2.51,5.14c0,1.06-2.37,83.32-2.5,84.7-.46,7.91-3.23,10.35-11.27,10.35s-11.08-3-11.14-11.14c0-1.38-.46-80.22-.46-83.25-.07-4.61-1.13-5.8-2.71-5.8s-2.3,1.52-2.3,5.67V70.79c0,30.52,2.17,32.83,5.86,34.61l-.13.26a44.23,44.23,0,0,0-13.71-1.91,50.49,50.49,0,0,0-15.16,1.91l-.07-.26c3.83-1.92,6.66-5.87,8.31-34.68l3.23-59.58C177.54,4.61,180.57.86,187.3.86c6.13,0,8.56,2.1,8.7,9.68,0,2.77,1.12,81.34,1.12,84.11.06,4.95,1.25,6.66,3.56,6.66,2,0,3.42-1.06,3.75-5.54.2-2.9,2.24-79.69,2.38-82.39C207.2,3.16,212.21.86,218,.86s7.77,3.16,8.24,8.89l2.63,63.48c1.25,26.89,4.48,30.39,7.91,32.17l-.13.26C232.71,104.28,230.54,103.75,227.44,103.75Z"/><path class="cls-1" d="M254.72,105.33c-4,0-5.6-1.38-8.9-1.38-3,0-5.33.52-9.36,1.91l-.13-.27c3.63-1.91,6.33-5.34,8.84-34.87l4.35-58.53c1.25-9.16,3.29-11.14,9.29-11.14,6.79,0,10.35,3.1,11.27,10.15l4.68,59.52c2.24,28.48,5.27,33.09,8.83,34.87l-.13.27A51.8,51.8,0,0,0,268.7,104C263.89,104,259.53,105.33,254.72,105.33Zm-4.54-34.41c-.07,2.51-.14,4.81-.2,7.06h9.82c0-2.25-.07-4.62-.13-7.19L258,10.15c-.2-3-1.25-4.42-3-4.42s-3,1.19-3.16,6.4Zm9.62,12.46H250C250,96.76,251.43,104,254.66,104,257.43,104,259.6,100.12,259.8,83.38Z"/><path class="cls-1" d="M292.49,30.58c0-6.72-3.43-12.65-3.43-19.51,0-7.25,6.73-10.21,18.06-10.21,6.4,0,10.81,1.51,14.9,1.51A9.38,9.38,0,0,0,327.16.86l.27.13c-2.9,4.48-4.88,12.13-4.88,22.8,0,9.3.06,15,.59,21l-.86.07c-2-14-5.86-26.23-8.23-33.88-2.58-5.54-5.61-8.11-8.38-8.11-2.24,0-3.49,1-3.49,4,0,5.14,6.26,11.14,6.26,20.43,0,15-19.51,16.81-19.51,25.77,0,8.7,19.18,6.79,19.18,26,0,9.17-6.52,14.9-6.52,19.91,0,3.56,2.44,4.68,8.3,4.68,6.4,0,9-2.44,9-6.46,0-4.42-5.34-12.92-5.34-24.12,0-16.81-2.37-18.92-6.19-20.64l.13-.26a46,46,0,0,0,12.72,1.85h.66a40.93,40.93,0,0,0,12-1.85l.06.26c-2.77,1.65-5.34,3.43-5.34,20.5,0,12.79,2.38,21.16,3.1,32.7h-.59c-3.1-11.87-7.38-23.6-9.95-23.6-.86,0-1.19.53-1.19,1.65,0,3,1.91,9.56,1.91,13.45,0,4.81-3.16,8.5-11,8.5-14,0-22.74-2.9-22.74-12,0-5.67,4.68-9.69,4.68-15.69,0-11.86-5.14-18.58-5.14-25S292.49,41.59,292.49,30.58Z"/><path class="cls-1" d="M352.21,105.33c-4,0-5.6-1.38-8.9-1.38-3,0-5.34.52-9.36,1.91l-.13-.27c3.62-1.91,6.33-5.34,8.83-34.87L347,12.19c1.25-9.16,3.3-11.14,9.29-11.14,6.79,0,10.35,3.1,11.28,10.15l4.68,59.52c2.24,28.48,5.27,33.09,8.83,34.87l-.13.27A51.83,51.83,0,0,0,366.18,104C361.37,104,357,105.33,352.21,105.33Zm-4.55-34.41c-.07,2.51-.13,4.81-.2,7.06h9.82c0-2.25-.06-4.62-.13-7.19L355.5,10.15c-.19-3-1.25-4.42-3-4.42s-3,1.19-3.17,6.4Zm9.62,12.46h-9.82c.07,13.38,1.45,20.57,4.68,20.57C354.91,104,357.09,100.12,357.28,83.38Z"/><path class="cls-1" d="M406.92,89.84l-23.27-82a14.59,14.59,0,0,1-.73-3.76c0-1.05.46-1.58,3.1-1.58h28.67c4.09,0,5.94-.52,7.72-1.64l.19.13c-3.23,4.81-5.07,12.32-5.07,22.87,0,10.08,0,16.81.66,24h-.86c-2.7-16-5.8-29.13-9-37.7C406.13,5.6,404.54,4,402.3,4c-1.91,0-2.5.92-2.5,2.5,0,2.31,1.05,5.94,2.83,11.8L424.05,97a23,23,0,0,1,1.26,5.2c0,1-.33,1.52-2.57,1.52H390c-4.22,0-6,.59-7.78,1.78l-.19-.2c2.9-4.48,5.14-11.67,5.14-23,0-10.68.13-17.87-.6-25.38h.86c2.37,16.28,5.08,29.53,8.37,38.56,2.57,5.07,5.08,6.72,9.16,6.72,3.17,0,4.49-.92,4.49-2.5S408.63,95.44,406.92,89.84Z"/><path class="cls-1" d="M428.27,105.66l-.13-.26c3.69-1.92,6.33-5.28,6.33-34.61V35.46c0-29.33-2.64-32.69-6.33-34.6l.13-.27A44.16,44.16,0,0,0,441.12,2.5h.73A44.16,44.16,0,0,0,454.7.59l.13.27c-3.69,1.91-6.32,5.27-6.32,34.6V78.24c.46,22.48,2.9,25.44,6.26,27.16l-.13.26a44.56,44.56,0,0,0-12.86-1.91h-.66A44.5,44.5,0,0,0,428.27,105.66Z"/><path class="cls-1" d="M500.78,2.77c4,0,6.79-.66,11.2-1.91l.13.32c-3.42,1.92-7.71,3.89-7.18,34.41l.92,59.33c.26,7.58-3.62,10.61-11.07,10.61-8.44,0-12.72-2.84-14-10.94l-7.58-83.78c-.72-4.29-1.84-5.34-3.82-5.34-2.17,0-3.56,2.24-2.7,7l3,61c1.72,27.56,4.22,29.6,8.7,31.91l-.13.26a36.13,36.13,0,0,0-11.53-1.91,29.07,29.07,0,0,0-10.55,1.91l-.13-.26c3.3-1.85,7.71-5,7.71-32l.07-61.5c-.07-7.64,3-11,10.81-11,7.64,0,12.79,3.09,14.3,13.64l7.45,81.4c.86,4.68,2.11,5.48,3.82,5.48,2.05,0,4.16-2,3-7.26l-3.95-58.79C496.89,7,493.79,3,490,1.18l.07-.32A30.89,30.89,0,0,0,500.78,2.77Z"/><path class="cls-1" d="M552.58,2.37A9.65,9.65,0,0,0,558,.86l.33.19c-3.17,4.49-5.21,11.34-5.21,22,0,9.29,0,15.36.66,21.68h-.86a183.12,183.12,0,0,0-8-34.47c-2.31-5.21-4.42-7.51-7.32-7.51-5.47,0-5.8,4-5.8,47.79,7.58-2,8.3-5.74,11.86-27.95h.8c-1.45,18.12-1.92,40.21,0,59.39h-.8c-3.56-24-4.28-28.15-11.86-30.06,0,44.82.13,51.68,5.08,51.68,3.09,0,5.2-2.44,7.71-7.85a215.76,215.76,0,0,0,9.62-39.55h.92a233.63,233.63,0,0,0-1.58,27.69c0,10.15,1.25,17.27,3.76,21.49l-.2.13a9.92,9.92,0,0,0-5.4-1.52c-4.09,0-8.64,1.52-14.37,1.52-13,0-22.09-6.79-22.09-53.59,0-44.82,9.5-51.08,21.23-51.08C542.89.86,548,2.37,552.58,2.37Z"/></g></g></svg>