<svg xmlns="http://www.w3.org/2000/svg" viewBox="0 0 557.82 105.27"><defs><style>.cls-1{fill:#fff;}</style></defs><title>HF1</title><g id="Layer_2" data-name="Layer 2"><g id="Layer_1-2" data-name="Layer 1"><path class="cls-1" d="M.13,105.07,0,104.8c3.69-1.91,6.33-5.27,6.33-34.6V34.87C6.33,5.54,3.69,2.18,0,.26L.13,0A44.51,44.51,0,0,0,13,1.91C17.4,1.91,22.41.26,26.43.26c12.79,0,20.24,3,20.24,10.22,0,6.13-3.36,11.34-3.36,17.34,0,12.19,5.8,18,5.8,24.45s-5.14,13-5.14,25c0,6,4.68,10,4.68,15.69,0,9.1-8.31,12-21.95,12-3.89,0-8.71-1.78-13.06-1.78H13A44.17,44.17,0,0,0,.13,105.07Zm34-6.79c0-5-6.52-10.74-6.52-19.91,0-19.18,19.25-17.27,19.25-26,0-9-19.58-10.74-19.58-25.77,0-9.1,6.26-14.83,6.26-19.84,0-3.3-1.78-4.55-6.85-4.55-4,0-6.33,1.71-6.33,31v38.1c0,26.89,1.71,31.57,6.46,31.57C32.23,102.89,34.14,101.71,34.14,98.28Z"/><path class="cls-1" d="M91.69,1.78A9.63,9.63,0,0,0,97.09.26l.33.2c-3.16,4.48-5.21,11.34-5.21,22,0,9.29,0,15.36.66,21.68H92A183.12,183.12,0,0,0,84,9.69c-2.31-5.21-4.42-7.51-7.32-7.51-5.47,0-5.8,4-5.8,47.78C78.5,48,79.23,44.23,82.79,22h.79c-1.45,18.12-1.91,40.2,0,59.38h-.79c-3.56-24-4.29-28.14-11.87-30.05,0,44.82.13,51.68,5.08,51.68,3.1,0,5.2-2.44,7.71-7.85a214.94,214.94,0,0,0,9.62-39.55h.93a231.2,231.2,0,0,0-1.59,27.69c0,10.15,1.26,17.27,3.76,21.48l-.2.14a9.92,9.92,0,0,0-5.4-1.52c-4.09,0-8.64,1.52-14.37,1.52-13,0-22.08-6.79-22.08-53.59C54.38,6.53,63.87.26,75.6.26,82,.26,87.14,1.78,91.69,1.78Z"/><path class="cls-1" d="M115.22,99.14c0,1.58,1.31,2.5,4.48,2.5,4.08,0,6.59-1.65,9.16-6.72,3.3-9,6-22.28,8.37-38.56h.86c-.73,7.51-.6,14.7-.6,25.37,0,11.34,2.25,18.53,5.15,23l-.2.2c-1.78-1.19-3.56-1.78-7.78-1.78H102c-2.25,0-2.57-.53-2.57-1.52a23,23,0,0,1,1.25-5.21l21.42-78.7c1.78-5.87,2.83-9.49,2.83-11.8,0-1.58-.59-2.5-2.5-2.5-2.24,0-3.82,1.58-6.06,6.13-3.17,8.57-6.27,21.75-9,37.7h-.86c.66-7.18.66-13.91.66-24,0-10.55-1.84-18.06-5.07-22.87l.2-.14c1.78,1.12,3.62,1.65,7.71,1.65h28.67c2.64,0,3.1.53,3.1,1.58a14.59,14.59,0,0,1-.73,3.76l-23.26,82C116.07,94.85,115.22,97.49,115.22,99.14Z"/><path class="cls-1" d="M165.18,105.07l-.14-.27c3.43-1.77,6.66-5.27,7.91-32.16l2.64-63.48c.46-5.73,2.44-8.9,8.24-8.9S194.57,2.57,195,12.79c.13,2.7,2.17,79.49,2.37,82.39.33,4.48,1.78,5.54,3.76,5.54,2.31,0,3.49-1.72,3.56-6.66,0-2.77,1.12-81.34,1.12-84.11.13-7.58,2.57-9.69,8.7-9.69,6.72,0,9.76,3.76,10.22,10.29l3.23,59.58c1.64,28.81,4.48,32.76,8.3,34.67l-.06.27A50.53,50.53,0,0,0,221,103.16a44.33,44.33,0,0,0-13.72,1.91l-.13-.27c3.69-1.77,5.87-4.08,5.87-34.6V9.69c0-4.15-.66-5.67-2.31-5.67s-2.63,1.19-2.7,5.8c0,3-.46,81.87-.46,83.25-.07,8.18-3.1,11.14-11.14,11.14s-10.81-2.44-11.27-10.35c-.13-1.38-2.51-83.64-2.51-84.7-.26-4.08-1-5.14-2.5-5.14s-2.37,1.52-2.31,5.54l-.06,63c.06,24.72,3.22,29.8,7.71,32.23l-.13.27c-4.42-1.25-7.26-1.91-11-1.91C171.24,103.16,169.06,103.68,165.18,105.07Z"/><path class="cls-1" d="M254.22,104.74c-4,0-5.6-1.39-8.9-1.39-3,0-5.33.53-9.36,1.92l-.13-.27c3.63-1.91,6.33-5.34,8.84-34.87L249,11.6C250.27,2.44,252.31.46,258.31.46c6.79,0,10.35,3.1,11.27,10.15l4.68,59.52c2.24,28.48,5.27,33.09,8.83,34.87l-.13.27a51.83,51.83,0,0,0-14.76-1.92C263.39,103.35,259,104.74,254.22,104.74Zm-4.54-34.41c-.07,2.51-.14,4.81-.2,7h9.82c0-2.24-.07-4.61-.13-7.18L257.52,9.56c-.2-3-1.25-4.42-3-4.42s-3,1.19-3.16,6.4Zm9.62,12.46h-9.82c.06,13.38,1.45,20.56,4.68,20.56C256.93,103.35,259.1,99.53,259.3,82.79Z"/><path class="cls-1" d="M292,30c0-6.72-3.43-12.65-3.43-19.51,0-7.25,6.73-10.22,18.06-10.22,6.4,0,10.81,1.52,14.9,1.52A9.39,9.39,0,0,0,326.66.26l.27.14c-2.9,4.48-4.88,12.12-4.88,22.8,0,9.3.06,15,.59,21l-.86.07c-2-14-5.86-26.24-8.23-33.88-2.58-5.54-5.61-8.11-8.38-8.11-2.24,0-3.49,1-3.49,4,0,5.14,6.26,11.14,6.26,20.43,0,15-19.51,16.81-19.51,25.77,0,8.7,19.18,6.79,19.18,26,0,9.17-6.52,14.9-6.52,19.91,0,3.56,2.44,4.68,8.3,4.68,6.4,0,9-2.44,9-6.46,0-4.42-5.34-12.92-5.34-24.13,0-16.8-2.37-18.91-6.19-20.63l.13-.26a46,46,0,0,0,12.72,1.85h.66a40.93,40.93,0,0,0,12-1.85l.06.26c-2.77,1.65-5.34,3.43-5.34,20.5,0,12.79,2.38,21.16,3.1,32.7h-.59c-3.1-11.87-7.38-23.6-9.95-23.6-.86,0-1.19.53-1.19,1.65,0,3,1.91,9.55,1.91,13.44,0,4.82-3.16,8.51-11,8.51-14,0-22.74-2.9-22.74-12,0-5.67,4.68-9.69,4.68-15.69,0-11.86-5.14-18.59-5.14-25S292,41,292,30Z"/><path class="cls-1" d="M351.71,104.74c-4,0-5.6-1.39-8.9-1.39-3,0-5.34.53-9.36,1.92l-.13-.27c3.62-1.91,6.33-5.34,8.83-34.87L346.5,11.6C347.75,2.44,349.8.46,355.79.46c6.79,0,10.35,3.1,11.28,10.15l4.68,59.52C374,98.61,377,103.22,380.58,105l-.13.27a51.85,51.85,0,0,0-14.77-1.92C360.87,103.35,356.52,104.74,351.71,104.74Zm-4.55-34.41c-.07,2.51-.13,4.81-.2,7h9.82c0-2.24-.06-4.61-.13-7.18L355,9.56c-.19-3-1.25-4.42-3-4.42s-3,1.19-3.17,6.4Zm9.62,12.46H347c.07,13.38,1.45,20.56,4.68,20.56C354.41,103.35,356.59,99.53,356.78,82.79Z"/><path class="cls-1" d="M397.39,99.14c0,1.58,1.31,2.5,4.48,2.5,4.08,0,6.59-1.65,9.16-6.72,3.3-9,6-22.28,8.37-38.56h.86c-.73,7.51-.59,14.7-.59,25.37,0,11.34,2.24,18.53,5.14,23l-.2.2c-1.78-1.19-3.56-1.78-7.78-1.78H384.14c-2.24,0-2.57-.53-2.57-1.52a23,23,0,0,1,1.25-5.21l21.42-78.7c1.78-5.87,2.84-9.49,2.84-11.8,0-1.58-.6-2.5-2.51-2.5-2.24,0-3.82,1.58-6.06,6.13-3.17,8.57-6.27,21.75-9,37.7h-.85c.65-7.18.65-13.91.65-24,0-10.55-1.84-18.06-5.07-22.87l.2-.14c1.78,1.12,3.62,1.65,7.71,1.65h28.67c2.64,0,3.1.53,3.1,1.58a14.59,14.59,0,0,1-.73,3.76L400,89.25C398.24,94.85,397.39,97.49,397.39,99.14Z"/><path class="cls-1" d="M427.77,105.07l-.13-.27c3.69-1.91,6.33-5.27,6.33-34.6V34.87c0-29.33-2.64-32.69-6.33-34.61l.13-.26a44.5,44.5,0,0,0,12.85,1.91h.73A44.5,44.5,0,0,0,454.2,0l.13.26C450.64,2.18,448,5.54,448,34.87V77.65c.46,22.47,2.9,25.44,6.26,27.15l-.13.27a44.22,44.22,0,0,0-12.86-1.91h-.66A44.16,44.16,0,0,0,427.77,105.07Z"/><path class="cls-1" d="M500.28,2.18c4,0,6.79-.66,11.2-1.92l.13.33C508.19,2.5,503.9,4.48,504.43,35l.92,59.32c.26,7.58-3.62,10.62-11.07,10.62-8.44,0-12.72-2.84-14-11l-7.58-83.77c-.72-4.29-1.84-5.34-3.82-5.34-2.17,0-3.56,2.24-2.7,7l3,61c1.72,27.55,4.22,29.6,8.7,31.9l-.13.27a35.86,35.86,0,0,0-11.53-1.91,29.07,29.07,0,0,0-10.55,1.91l-.13-.27c3.3-1.84,7.71-5,7.71-32l.07-61.5c-.07-7.64,3-11,10.81-11,7.64,0,12.79,3.1,14.3,13.65l7.45,81.4c.86,4.68,2.11,5.47,3.82,5.47,2.05,0,4.16-2,3-7.25l-3.95-58.79c-2.37-28.35-5.47-32.3-9.23-34.15l.07-.33A30.7,30.7,0,0,0,500.28,2.18Z"/><path class="cls-1" d="M552.08,1.78A9.66,9.66,0,0,0,557.49.26l.33.2c-3.17,4.48-5.21,11.34-5.21,22,0,9.29,0,15.36.66,21.68h-.86a183.12,183.12,0,0,0-8-34.47c-2.31-5.21-4.42-7.51-7.32-7.51-5.47,0-5.8,4-5.8,47.78,7.58-2,8.3-5.73,11.86-27.94h.8c-1.45,18.12-1.92,40.2,0,59.38h-.8c-3.56-24-4.28-28.14-11.86-30.05,0,44.82.13,51.68,5.08,51.68,3.09,0,5.2-2.44,7.71-7.85a215.76,215.76,0,0,0,9.62-39.55h.92a233.63,233.63,0,0,0-1.58,27.69c0,10.15,1.25,17.27,3.76,21.48l-.2.14a9.92,9.92,0,0,0-5.4-1.52c-4.09,0-8.64,1.52-14.37,1.52-13,0-22.09-6.79-22.09-53.59C514.77,6.53,524.27.26,536,.26,542.39.26,547.53,1.78,552.08,1.78Z"/></g></g></svg>