<svg xmlns="http://www.w3.org/2000/svg" viewBox="0 0 557.82 105.27"><defs><style>.cls-1{fill:#fff;}</style></defs><title>HF2</title><g id="Layer_2" data-name="Layer 2"><g id="Layer_1-2" data-name="Layer 1"><path class="cls-1" d="M.13,105.07,0,104.8c3.69-1.91,6.33-5.27,6.33-34.6V34.87C6.33,5.54,3.69,2.18,0,.26L.13,0A44.51,44.51,0,0,0,13,1.91C17.4,1.91,22.41.26,26.43.26c12.79,0,20.24,3,20.24,10.22,0,6.13-3.36,11.34-3.36,17.34,0,12.19,5.8,18,5.8,24.45s-5.14,13-5.14,25c0,6,4.68,10,4.68,15.69,0,9.1-8.31,12-21.95,12-3.89,0-8.71-1.78-13.06-1.78H13A44.17,44.17,0,0,0,.13,105.07Zm34-6.79c0-5-6.52-10.74-6.52-19.91,0-19.18,19.25-17.27,19.25-26,0-9-19.58-10.74-19.58-25.77,0-9.1,6.26-14.83,6.26-19.84,0-3.3-1.78-4.55-6.85-4.55-4,0-6.33,1.71-6.33,31v38.1c0,26.89,1.71,31.57,6.46,31.57C32.23,102.89,34.14,101.71,34.14,98.28Z"/><path class="cls-1" d="M91.69,1.78A9.63,9.63,0,0,0,97.09.26l.33.2c-3.16,4.48-5.21,11.34-5.21,22,0,9.29,0,15.36.66,21.68H92A183.12,183.12,0,0,0,84,9.69c-2.31-5.21-4.42-7.51-7.32-7.51-5.47,0-5.8,4-5.8,47.78C78.5,48,79.23,44.23,82.79,22h.79c-1.45,18.12-1.91,40.2,0,59.38h-.79c-3.56-24-4.29-28.14-11.87-30.05,0,44.82.13,51.68,5.08,51.68,3.1,0,5.2-2.44,7.71-7.85a214.94,214.94,0,0,0,9.62-39.55h.93a231.2,231.2,0,0,0-1.59,27.69c0,10.15,1.26,17.27,3.76,21.48l-.2.14a9.92,9.92,0,0,0-5.4-1.52c-4.09,0-8.64,1.52-14.37,1.52-13,0-22.08-6.79-22.08-53.59C54.38,6.53,63.87.26,75.6.26,82,.26,87.14,1.78,91.69,1.78Z"/><path class="cls-1" d="M124.25,89.25,101,7.25a14.59,14.59,0,0,1-.73-3.76c0-1.05.46-1.58,3.1-1.58H132c4.09,0,5.94-.53,7.72-1.65l.19.14c-3.23,4.81-5.07,12.32-5.07,22.87,0,10.08,0,16.81.66,24h-.86c-2.7-15.95-5.8-29.13-9-37.7-2.25-4.55-3.83-6.13-6.07-6.13-1.91,0-2.5.92-2.5,2.5,0,2.31,1.05,5.93,2.83,11.8l21.42,78.7a23.2,23.2,0,0,1,1.26,5.21c0,1-.33,1.52-2.58,1.52H107.37c-4.22,0-6,.59-7.78,1.78l-.19-.2c2.9-4.48,5.14-11.67,5.14-23,0-10.67.13-17.86-.6-25.37h.86c2.37,16.28,5.08,29.53,8.37,38.56,2.57,5.07,5.08,6.72,9.16,6.72,3.17,0,4.49-.92,4.49-2.5S126,94.85,124.25,89.25Z"/><path class="cls-1" d="M165.18,105.07l-.14-.27c3.43-1.77,6.66-5.27,7.91-32.16l2.64-63.48c.46-5.73,2.44-8.9,8.24-8.9S194.57,2.57,195,12.79c.13,2.7,2.17,79.49,2.37,82.39.33,4.48,1.78,5.54,3.76,5.54,2.31,0,3.49-1.72,3.56-6.66,0-2.77,1.12-81.34,1.12-84.11.13-7.58,2.57-9.69,8.7-9.69,6.72,0,9.76,3.76,10.22,10.29l3.23,59.58c1.64,28.81,4.48,32.76,8.3,34.67l-.06.27A50.53,50.53,0,0,0,221,103.16a44.33,44.33,0,0,0-13.72,1.91l-.13-.27c3.69-1.77,5.87-4.08,5.87-34.6V9.69c0-4.15-.66-5.67-2.31-5.67s-2.63,1.19-2.7,5.8c0,3-.46,81.87-.46,83.25-.07,8.18-3.1,11.14-11.14,11.14s-10.81-2.44-11.27-10.35c-.13-1.38-2.51-83.64-2.51-84.7-.26-4.08-1-5.14-2.5-5.14s-2.37,1.52-2.31,5.54l-.06,63c.06,24.72,3.22,29.8,7.71,32.23l-.13.27c-4.42-1.25-7.26-1.91-11-1.91C171.24,103.16,169.06,103.68,165.18,105.07Z"/><path class="cls-1" d="M254.22,104.74c-4,0-5.6-1.39-8.9-1.39-3,0-5.33.53-9.36,1.92l-.13-.27c3.63-1.91,6.33-5.34,8.84-34.87L249,11.6C250.27,2.44,252.31.46,258.31.46c6.79,0,10.35,3.1,11.27,10.15l4.68,59.52c2.24,28.48,5.27,33.09,8.83,34.87l-.13.27a51.83,51.83,0,0,0-14.76-1.92C263.39,103.35,259,104.74,254.22,104.74Zm-4.54-34.41c-.07,2.51-.14,4.81-.2,7h9.82c0-2.24-.07-4.61-.13-7.18L257.52,9.56c-.2-3-1.25-4.42-3-4.42s-3,1.19-3.16,6.4Zm9.62,12.46h-9.82c.06,13.38,1.45,20.56,4.68,20.56C256.93,103.35,259.1,99.53,259.3,82.79Z"/><path class="cls-1" d="M332.46,52.27c0,6.39-5.14,13.12-5.14,25,0,6,4.68,10,4.68,15.69,0,9.1-8.77,12-22.74,12-7.84,0-11-3.69-11-8.51,0-3.89,1.91-10.41,1.91-13.44,0-1.12-.33-1.65-1.18-1.65-2.57,0-6.86,11.73-10,23.6h-.59c.73-11.54,3.1-19.91,3.1-32.7,0-17.07-2.57-18.85-5.34-20.5l.07-.26a40.86,40.86,0,0,0,12,1.85h.66a45.89,45.89,0,0,0,12.72-1.85l.14.26c-3.83,1.72-6.2,3.83-6.2,20.63,0,11.21-5.34,19.71-5.34,24.13,0,4,2.64,6.46,9,6.46,5.87,0,8.31-1.12,8.31-4.68,0-5-6.53-10.74-6.53-19.91,0-19.18,19.18-17.27,19.18-26,0-9-19.51-10.74-19.51-25.77,0-9.29,6.26-15.29,6.26-20.43,0-3-1.25-4-3.49-4-2.77,0-5.8,2.57-8.37,8.11-2.37,7.64-6.26,19.84-8.24,33.88l-.86-.07c.53-6,.6-11.66.6-21,0-10.68-2-18.32-4.88-22.8L292,.26a9.39,9.39,0,0,0,5.14,1.52c4.09,0,8.51-1.52,14.9-1.52,11.34,0,18.06,3,18.06,10.22,0,6.86-3.43,12.79-3.43,19.51C326.66,41,332.46,45.81,332.46,52.27Z"/><path class="cls-1" d="M351.71,104.74c-4,0-5.6-1.39-8.9-1.39-3,0-5.34.53-9.36,1.92l-.13-.27c3.62-1.91,6.33-5.34,8.83-34.87L346.5,11.6C347.75,2.44,349.8.46,355.79.46c6.79,0,10.35,3.1,11.28,10.15l4.68,59.52C374,98.61,377,103.22,380.58,105l-.13.27a51.85,51.85,0,0,0-14.77-1.92C360.87,103.35,356.52,104.74,351.71,104.74Zm-4.55-34.41c-.07,2.51-.13,4.81-.2,7h9.82c0-2.24-.06-4.61-.13-7.18L355,9.56c-.19-3-1.25-4.42-3-4.42s-3,1.19-3.17,6.4Zm9.62,12.46H347c.07,13.38,1.45,20.56,4.68,20.56C354.41,103.35,356.59,99.53,356.78,82.79Z"/><path class="cls-1" d="M406.42,89.25l-23.27-82a14.59,14.59,0,0,1-.73-3.76c0-1.05.46-1.58,3.1-1.58h28.67c4.09,0,5.94-.53,7.72-1.65l.19.14C418.87,5.21,417,12.72,417,23.27c0,10.08,0,16.81.66,24h-.86c-2.7-15.95-5.8-29.13-9-37.7C405.63,5,404,3.43,401.8,3.43c-1.91,0-2.5.92-2.5,2.5,0,2.31,1.05,5.93,2.83,11.8l21.42,78.7a23.2,23.2,0,0,1,1.26,5.21c0,1-.33,1.52-2.57,1.52h-32.7c-4.22,0-6,.59-7.78,1.78l-.19-.2c2.9-4.48,5.14-11.67,5.14-23,0-10.67.13-17.86-.6-25.37H387c2.37,16.28,5.08,29.53,8.37,38.56,2.57,5.07,5.08,6.72,9.16,6.72,3.17,0,4.49-.92,4.49-2.5S408.13,94.85,406.42,89.25Z"/><path class="cls-1" d="M427.77,105.07l-.13-.27c3.69-1.91,6.33-5.27,6.33-34.6V34.87c0-29.33-2.64-32.69-6.33-34.61l.13-.26a44.5,44.5,0,0,0,12.85,1.91h.73A44.5,44.5,0,0,0,454.2,0l.13.26C450.64,2.18,448,5.54,448,34.87V77.65c.46,22.47,2.9,25.44,6.26,27.15l-.13.27a44.22,44.22,0,0,0-12.86-1.91h-.66A44.16,44.16,0,0,0,427.77,105.07Z"/><path class="cls-1" d="M477.54.26l.06.33c-3.76,1.85-6.85,5.8-9.23,34.15l-3.95,58.79c-1.12,5.28,1,7.25,3,7.25,1.71,0,3-.79,3.82-5.47l7.45-81.4C480.24,3.36,485.38.26,493,.26c7.84,0,10.87,3.37,10.81,11l.06,61.5c0,27,4.42,30.19,7.71,32l-.13.27a29,29,0,0,0-10.55-1.91,35.86,35.86,0,0,0-11.53,1.91l-.13-.27c4.48-2.3,7-4.35,8.7-31.9l3-61c.86-4.74-.52-7-2.7-7-2,0-3.1,1-3.82,5.34L486.83,94c-1.25,8.11-5.54,11-14,11-7.45,0-11.34-3-11.08-10.62L462.7,35C463.23,4.48,459,2.5,455.52.59l.13-.33c4.42,1.26,7.19,1.92,11.21,1.92A30.74,30.74,0,0,0,477.54.26Z"/><path class="cls-1" d="M552.08,1.78A9.66,9.66,0,0,0,557.49.26l.33.2c-3.17,4.48-5.21,11.34-5.21,22,0,9.29,0,15.36.66,21.68h-.86a183.12,183.12,0,0,0-8-34.47c-2.31-5.21-4.42-7.51-7.32-7.51-5.47,0-5.8,4-5.8,47.78,7.58-2,8.3-5.73,11.86-27.94h.8c-1.45,18.12-1.92,40.2,0,59.38h-.8c-3.56-24-4.28-28.14-11.86-30.05,0,44.82.13,51.68,5.08,51.68,3.09,0,5.2-2.44,7.71-7.85a215.76,215.76,0,0,0,9.62-39.55h.92a233.63,233.63,0,0,0-1.58,27.69c0,10.15,1.25,17.27,3.76,21.48l-.2.14a9.92,9.92,0,0,0-5.4-1.52c-4.09,0-8.64,1.52-14.37,1.52-13,0-22.09-6.79-22.09-53.59C514.77,6.53,524.27.26,536,.26,542.39.26,547.53,1.78,552.08,1.78Z"/></g></g></svg>