<svg xmlns="http://www.w3.org/2000/svg" viewBox="0 0 557.82 105.27"><defs><style>.cls-1{fill:#fff;}</style></defs><title>HF3</title><g id="Layer_2" data-name="Layer 2"><g id="Layer_1-2" data-name="Layer 1"><path class="cls-1" d="M36.12,103.16h-.66c-4.35,0-9.16,1.78-13,1.78-13.64,0-21.95-2.9-21.95-12,0-5.67,4.68-9.69,4.68-15.69C5.14,65.32,0,58.66,0,52.27S5.8,40,5.8,27.82c0-6-3.36-11.21-3.36-17.34C2.44,3.23,9.89.26,22.67.26c4,0,9,1.65,13.45,1.65A44.45,44.45,0,0,0,49,0l.14.26c-3.69,1.92-6.33,5.28-6.33,34.61V70.2c0,29.33,2.64,32.69,6.33,34.6l-.14.27A44.11,44.11,0,0,0,36.12,103.16Zm-13.84-.27c4.75,0,6.46-4.68,6.46-31.57V33.22c0-29.27-2.37-31-6.33-31-5.07,0-6.85,1.25-6.85,4.55,0,5,6.26,10.74,6.26,19.84,0,15-19.58,16.81-19.58,25.77,0,8.7,19.25,6.79,19.25,26,0,9.17-6.53,14.9-6.53,19.91C15,101.71,16.87,102.89,22.28,102.89Z"/><path class="cls-1" d="M91.69,1.78A9.63,9.63,0,0,0,97.09.26l.33.2c-3.16,4.48-5.21,11.34-5.21,22,0,9.29,0,15.36.66,21.68H92A183.12,183.12,0,0,0,84,9.69c-2.31-5.21-4.42-7.51-7.32-7.51-5.47,0-5.8,4-5.8,47.78C78.5,48,79.23,44.23,82.79,22h.79c-1.45,18.12-1.91,40.2,0,59.38h-.79c-3.56-24-4.29-28.14-11.87-30.05,0,44.82.13,51.68,5.08,51.68,3.1,0,5.2-2.44,7.71-7.85a214.94,214.94,0,0,0,9.62-39.55h.93a231.2,231.2,0,0,0-1.59,27.69c0,10.15,1.26,17.27,3.76,21.48l-.2.14a9.92,9.92,0,0,0-5.4-1.52c-4.09,0-8.64,1.52-14.37,1.52-13,0-22.08-6.79-22.08-53.59C54.38,6.53,63.87.26,75.6.26,82,.26,87.14,1.78,91.69,1.78Z"/><path class="cls-1" d="M115.22,99.14c0,1.58,1.31,2.5,4.48,2.5,4.08,0,6.59-1.65,9.16-6.72,3.3-9,6-22.28,8.37-38.56h.86c-.73,7.51-.6,14.7-.6,25.37,0,11.34,2.25,18.53,5.15,23l-.2.2c-1.78-1.19-3.56-1.78-7.78-1.78H102c-2.25,0-2.57-.53-2.57-1.52a23,23,0,0,1,1.25-5.21l21.42-78.7c1.78-5.87,2.83-9.49,2.83-11.8,0-1.58-.59-2.5-2.5-2.5-2.24,0-3.82,1.58-6.06,6.13-3.17,8.57-6.27,21.75-9,37.7h-.86c.66-7.18.66-13.91.66-24,0-10.55-1.84-18.06-5.07-22.87l.2-.14c1.78,1.12,3.62,1.65,7.71,1.65h28.67c2.64,0,3.1.53,3.1,1.58a14.59,14.59,0,0,1-.73,3.76l-23.26,82C116.07,94.85,115.22,97.49,115.22,99.14Z"/><path class="cls-1" d="M226.94,103.16c-3.76,0-6.59.66-11,1.91l-.13-.27c4.48-2.43,7.64-7.51,7.71-32.23l-.07-63c.07-4-.85-5.54-2.3-5.54s-2.24,1.06-2.51,5.14c0,1.06-2.37,83.32-2.5,84.7-.46,7.91-3.23,10.35-11.27,10.35s-11.08-3-11.14-11.14c0-1.38-.46-80.22-.46-83.25-.07-4.61-1.13-5.8-2.71-5.8s-2.3,1.52-2.3,5.67V70.2c0,30.52,2.17,32.83,5.86,34.6l-.13.27a44.23,44.23,0,0,0-13.71-1.91,50.49,50.49,0,0,0-15.16,1.91l-.07-.27c3.83-1.91,6.66-5.86,8.31-34.67l3.23-59.58C177,4,180.07.26,186.8.26c6.13,0,8.56,2.11,8.7,9.69,0,2.77,1.12,81.34,1.12,84.11.06,4.94,1.25,6.66,3.56,6.66,2,0,3.42-1.06,3.75-5.54.2-2.9,2.24-79.69,2.38-82.39C206.7,2.57,211.71.26,217.45.26s7.77,3.17,8.24,8.9l2.63,63.48c1.25,26.89,4.48,30.39,7.91,32.16l-.13.27C232.21,103.68,230,103.16,226.94,103.16Z"/><path class="cls-1" d="M254.22,104.74c-4,0-5.6-1.39-8.9-1.39-3,0-5.33.53-9.36,1.92l-.13-.27c3.63-1.91,6.33-5.34,8.84-34.87L249,11.6C250.27,2.44,252.31.46,258.31.46c6.79,0,10.35,3.1,11.27,10.15l4.68,59.52c2.24,28.48,5.27,33.09,8.83,34.87l-.13.27a51.83,51.83,0,0,0-14.76-1.92C263.39,103.35,259,104.74,254.22,104.74Zm-4.54-34.41c-.07,2.51-.14,4.81-.2,7h9.82c0-2.24-.07-4.61-.13-7.18L257.52,9.56c-.2-3-1.25-4.42-3-4.42s-3,1.19-3.16,6.4Zm9.62,12.46h-9.82c.06,13.38,1.45,20.56,4.68,20.56C256.93,103.35,259.1,99.53,259.3,82.79Z"/><path class="cls-1" d="M292,30c0-6.72-3.43-12.65-3.43-19.51,0-7.25,6.73-10.22,18.06-10.22,6.4,0,10.81,1.52,14.9,1.52A9.39,9.39,0,0,0,326.66.26l.27.14c-2.9,4.48-4.88,12.12-4.88,22.8,0,9.3.06,15,.59,21l-.86.07c-2-14-5.86-26.24-8.23-33.88-2.58-5.54-5.61-8.11-8.38-8.11-2.24,0-3.49,1-3.49,4,0,5.14,6.26,11.14,6.26,20.43,0,15-19.51,16.81-19.51,25.77,0,8.7,19.18,6.79,19.18,26,0,9.17-6.52,14.9-6.52,19.91,0,3.56,2.44,4.68,8.3,4.68,6.4,0,9-2.44,9-6.46,0-4.42-5.34-12.92-5.34-24.13,0-16.8-2.37-18.91-6.19-20.63l.13-.26a46,46,0,0,0,12.72,1.85h.66a40.93,40.93,0,0,0,12-1.85l.06.26c-2.77,1.65-5.34,3.43-5.34,20.5,0,12.79,2.38,21.16,3.1,32.7h-.59c-3.1-11.87-7.38-23.6-9.95-23.6-.86,0-1.19.53-1.19,1.65,0,3,1.91,9.55,1.91,13.44,0,4.82-3.16,8.51-11,8.51-14,0-22.74-2.9-22.74-12,0-5.67,4.68-9.69,4.68-15.69,0-11.86-5.14-18.59-5.14-25S292,41,292,30Z"/><path class="cls-1" d="M348.21,103.35a51.83,51.83,0,0,0-14.76,1.92l-.13-.27c3.56-1.78,6.59-6.39,8.83-34.87l4.68-59.52c.92-7,4.48-10.15,11.27-10.15,6,0,8,2,9.3,11.14l4.35,58.53c2.5,29.53,5.2,33,8.83,34.87l-.13.27c-4-1.39-6.33-1.92-9.36-1.92-3.3,0-4.88,1.39-8.9,1.39C357.38,104.74,353,103.35,348.21,103.35ZM365,11.54c-.19-5.21-1.32-6.4-3.16-6.4s-2.77,1.39-3,4.42L357.24,70.2c-.06,2.57-.13,4.94-.13,7.18h9.82c-.06-2.24-.13-4.54-.19-7Zm-2.77,91.81c3.23,0,4.62-7.18,4.68-20.56h-9.82C357.31,99.53,359.49,103.35,362.25,103.35Z"/><path class="cls-1" d="M397.39,99.14c0,1.58,1.31,2.5,4.48,2.5,4.08,0,6.59-1.65,9.16-6.72,3.3-9,6-22.28,8.37-38.56h.86c-.73,7.51-.59,14.7-.59,25.37,0,11.34,2.24,18.53,5.14,23l-.2.2c-1.78-1.19-3.56-1.78-7.78-1.78H384.14c-2.24,0-2.57-.53-2.57-1.52a23,23,0,0,1,1.25-5.21l21.42-78.7c1.78-5.87,2.84-9.49,2.84-11.8,0-1.58-.6-2.5-2.51-2.5-2.24,0-3.82,1.58-6.06,6.13-3.17,8.57-6.27,21.75-9,37.7h-.85c.65-7.18.65-13.91.65-24,0-10.55-1.84-18.06-5.07-22.87l.2-.14c1.78,1.12,3.62,1.65,7.71,1.65h28.67c2.64,0,3.1.53,3.1,1.58a14.59,14.59,0,0,1-.73,3.76L400,89.25C398.24,94.85,397.39,97.49,397.39,99.14Z"/><path class="cls-1" d="M427.77,105.07l-.13-.27c3.69-1.91,6.33-5.27,6.33-34.6V34.87c0-29.33-2.64-32.69-6.33-34.61l.13-.26a44.5,44.5,0,0,0,12.85,1.91h.73A44.5,44.5,0,0,0,454.2,0l.13.26C450.64,2.18,448,5.54,448,34.87V77.65c.46,22.47,2.9,25.44,6.26,27.15l-.13.27a44.22,44.22,0,0,0-12.86-1.91h-.66A44.16,44.16,0,0,0,427.77,105.07Z"/><path class="cls-1" d="M500.28,2.18c4,0,6.79-.66,11.2-1.92l.13.33C508.19,2.5,503.9,4.48,504.43,35l.92,59.32c.26,7.58-3.62,10.62-11.07,10.62-8.44,0-12.72-2.84-14-11l-7.58-83.77c-.72-4.29-1.84-5.34-3.82-5.34-2.17,0-3.56,2.24-2.7,7l3,61c1.72,27.55,4.22,29.6,8.7,31.9l-.13.27a35.86,35.86,0,0,0-11.53-1.91,29.07,29.07,0,0,0-10.55,1.91l-.13-.27c3.3-1.84,7.71-5,7.71-32l.07-61.5c-.07-7.64,3-11,10.81-11,7.64,0,12.79,3.1,14.3,13.65l7.45,81.4c.86,4.68,2.11,5.47,3.82,5.47,2.05,0,4.16-2,3-7.25l-3.95-58.79c-2.37-28.35-5.47-32.3-9.23-34.15l.07-.33A30.7,30.7,0,0,0,500.28,2.18Z"/><path class="cls-1" d="M536.59.26c11.74,0,21.23,6.27,21.23,51.09,0,46.8-9.1,53.59-22.08,53.59-5.74,0-10.29-1.52-14.37-1.52a10,10,0,0,0-5.41,1.52l-.2-.14c2.51-4.21,3.76-11.33,3.76-21.48a231.5,231.5,0,0,0-1.58-27.69h.92a214.83,214.83,0,0,0,9.63,39.55c2.5,5.41,4.61,7.85,7.71,7.85,4.94,0,5.07-6.86,5.07-51.68-7.58,1.91-8.3,6.06-11.86,30.05h-.79c1.91-19.18,1.45-41.26,0-59.38h.79C533,44.23,533.69,48,541.27,50c0-43.76-.33-47.78-5.8-47.78-2.9,0-5,2.3-7.31,7.51a183,183,0,0,0-8,34.47h-.86c.66-6.32.66-12.39.66-21.68,0-10.68-2-17.54-5.21-22l.33-.2a9.66,9.66,0,0,0,5.41,1.52C525.06,1.78,530.2.26,536.59.26Z"/></g></g></svg>