<svg xmlns="http://www.w3.org/2000/svg" viewBox="0 0 557.82 105.27"><defs><style>.cls-1{fill:#fff;}</style></defs><title>HF5</title><g id="Layer_2" data-name="Layer 2"><g id="Layer_1-2" data-name="Layer 1"><path class="cls-1" d="M36.12,103.16h-.66c-4.35,0-9.16,1.78-13,1.78-13.64,0-21.95-2.9-21.95-12,0-5.67,4.68-9.69,4.68-15.69C5.14,65.32,0,58.66,0,52.27S5.8,40,5.8,27.82c0-6-3.36-11.21-3.36-17.34C2.44,3.23,9.89.26,22.67.26c4,0,9,1.65,13.45,1.65A44.45,44.45,0,0,0,49,0l.14.26c-3.69,1.92-6.33,5.28-6.33,34.61V70.2c0,29.33,2.64,32.69,6.33,34.6l-.14.27A44.11,44.11,0,0,0,36.12,103.16Zm-13.84-.27c4.75,0,6.46-4.68,6.46-31.57V33.22c0-29.27-2.37-31-6.33-31-5.07,0-6.85,1.25-6.85,4.55,0,5,6.26,10.74,6.26,19.84,0,15-19.58,16.81-19.58,25.77,0,8.7,19.25,6.79,19.25,26,0,9.17-6.53,14.9-6.53,19.91C15,101.71,16.87,102.89,22.28,102.89Z"/><path class="cls-1" d="M91.69,1.78A9.63,9.63,0,0,0,97.09.26l.33.2c-3.16,4.48-5.21,11.34-5.21,22,0,9.29,0,15.36.66,21.68H92A183.12,183.12,0,0,0,84,9.69c-2.31-5.21-4.42-7.51-7.32-7.51-5.47,0-5.8,4-5.8,47.78C78.5,48,79.23,44.23,82.79,22h.79c-1.45,18.12-1.91,40.2,0,59.38h-.79c-3.56-24-4.29-28.14-11.87-30.05,0,44.82.13,51.68,5.08,51.68,3.1,0,5.2-2.44,7.71-7.85a214.94,214.94,0,0,0,9.62-39.55h.93a231.2,231.2,0,0,0-1.59,27.69c0,10.15,1.26,17.27,3.76,21.48l-.2.14a9.92,9.92,0,0,0-5.4-1.52c-4.09,0-8.64,1.52-14.37,1.52-13,0-22.08-6.79-22.08-53.59C54.38,6.53,63.87.26,75.6.26,82,.26,87.14,1.78,91.69,1.78Z"/><path class="cls-1" d="M124.25,89.25,101,7.25a14.59,14.59,0,0,1-.73-3.76c0-1.05.46-1.58,3.1-1.58H132c4.09,0,5.94-.53,7.72-1.65l.19.14c-3.23,4.81-5.07,12.32-5.07,22.87,0,10.08,0,16.81.66,24h-.86c-2.7-15.95-5.8-29.13-9-37.7-2.25-4.55-3.83-6.13-6.07-6.13-1.91,0-2.5.92-2.5,2.5,0,2.31,1.05,5.93,2.83,11.8l21.42,78.7a23.2,23.2,0,0,1,1.26,5.21c0,1-.33,1.52-2.58,1.52H107.37c-4.22,0-6,.59-7.78,1.78l-.19-.2c2.9-4.48,5.14-11.67,5.14-23,0-10.67.13-17.86-.6-25.37h.86c2.37,16.28,5.08,29.53,8.37,38.56,2.57,5.07,5.08,6.72,9.16,6.72,3.17,0,4.49-.92,4.49-2.5S126,94.85,124.25,89.25Z"/><path class="cls-1" d="M226.94,103.16c-3.76,0-6.59.66-11,1.91l-.13-.27c4.48-2.43,7.64-7.51,7.71-32.23l-.07-63c.07-4-.85-5.54-2.3-5.54s-2.24,1.06-2.51,5.14c0,1.06-2.37,83.32-2.5,84.7-.46,7.91-3.23,10.35-11.27,10.35s-11.08-3-11.14-11.14c0-1.38-.46-80.22-.46-83.25-.07-4.61-1.13-5.8-2.71-5.8s-2.3,1.52-2.3,5.67V70.2c0,30.52,2.17,32.83,5.86,34.6l-.13.27a44.23,44.23,0,0,0-13.71-1.91,50.49,50.49,0,0,0-15.16,1.91l-.07-.27c3.83-1.91,6.66-5.86,8.31-34.67l3.23-59.58C177,4,180.07.26,186.8.26c6.13,0,8.56,2.11,8.7,9.69,0,2.77,1.12,81.34,1.12,84.11.06,4.94,1.25,6.66,3.56,6.66,2,0,3.42-1.06,3.75-5.54.2-2.9,2.24-79.69,2.38-82.39C206.7,2.57,211.71.26,217.45.26s7.77,3.17,8.24,8.9l2.63,63.48c1.25,26.89,4.48,30.39,7.91,32.16l-.13.27C232.21,103.68,230,103.16,226.94,103.16Z"/><path class="cls-1" d="M254.22,104.74c-4,0-5.6-1.39-8.9-1.39-3,0-5.33.53-9.36,1.92l-.13-.27c3.63-1.91,6.33-5.34,8.84-34.87L249,11.6C250.27,2.44,252.31.46,258.31.46c6.79,0,10.35,3.1,11.27,10.15l4.68,59.52c2.24,28.48,5.27,33.09,8.83,34.87l-.13.27a51.83,51.83,0,0,0-14.76-1.92C263.39,103.35,259,104.74,254.22,104.74Zm-4.54-34.41c-.07,2.51-.14,4.81-.2,7h9.82c0-2.24-.07-4.61-.13-7.18L257.52,9.56c-.2-3-1.25-4.42-3-4.42s-3,1.19-3.16,6.4Zm9.62,12.46h-9.82c.06,13.38,1.45,20.56,4.68,20.56C256.93,103.35,259.1,99.53,259.3,82.79Z"/><path class="cls-1" d="M292,30c0-6.72-3.43-12.65-3.43-19.51,0-7.25,6.73-10.22,18.06-10.22,6.4,0,10.81,1.52,14.9,1.52A9.39,9.39,0,0,0,326.66.26l.27.14c-2.9,4.48-4.88,12.12-4.88,22.8,0,9.3.06,15,.59,21l-.86.07c-2-14-5.86-26.24-8.23-33.88-2.58-5.54-5.61-8.11-8.38-8.11-2.24,0-3.49,1-3.49,4,0,5.14,6.26,11.14,6.26,20.43,0,15-19.51,16.81-19.51,25.77,0,8.7,19.18,6.79,19.18,26,0,9.17-6.52,14.9-6.52,19.91,0,3.56,2.44,4.68,8.3,4.68,6.4,0,9-2.44,9-6.46,0-4.42-5.34-12.92-5.34-24.13,0-16.8-2.37-18.91-6.19-20.63l.13-.26a46,46,0,0,0,12.72,1.85h.66a40.93,40.93,0,0,0,12-1.85l.06.26c-2.77,1.65-5.34,3.43-5.34,20.5,0,12.79,2.38,21.16,3.1,32.7h-.59c-3.1-11.87-7.38-23.6-9.95-23.6-.86,0-1.19.53-1.19,1.65,0,3,1.91,9.55,1.91,13.44,0,4.82-3.16,8.51-11,8.51-14,0-22.74-2.9-22.74-12,0-5.67,4.68-9.69,4.68-15.69,0-11.86-5.14-18.59-5.14-25S292,41,292,30Z"/><path class="cls-1" d="M351.71,104.74c-4,0-5.6-1.39-8.9-1.39-3,0-5.34.53-9.36,1.92l-.13-.27c3.62-1.91,6.33-5.34,8.83-34.87L346.5,11.6C347.75,2.44,349.8.46,355.79.46c6.79,0,10.35,3.1,11.28,10.15l4.68,59.52C374,98.61,377,103.22,380.58,105l-.13.27a51.85,51.85,0,0,0-14.77-1.92C360.87,103.35,356.52,104.74,351.71,104.74Zm-4.55-34.41c-.07,2.51-.13,4.81-.2,7h9.82c0-2.24-.06-4.61-.13-7.18L355,9.56c-.19-3-1.25-4.42-3-4.42s-3,1.19-3.17,6.4Zm9.62,12.46H347c.07,13.38,1.45,20.56,4.68,20.56C354.41,103.35,356.59,99.53,356.78,82.79Z"/><path class="cls-1" d="M406.42,89.25l-23.27-82a14.59,14.59,0,0,1-.73-3.76c0-1.05.46-1.58,3.1-1.58h28.67c4.09,0,5.94-.53,7.72-1.65l.19.14C418.87,5.21,417,12.72,417,23.27c0,10.08,0,16.81.66,24h-.86c-2.7-15.95-5.8-29.13-9-37.7C405.63,5,404,3.43,401.8,3.43c-1.91,0-2.5.92-2.5,2.5,0,2.31,1.05,5.93,2.83,11.8l21.42,78.7a23.2,23.2,0,0,1,1.26,5.21c0,1-.33,1.52-2.57,1.52h-32.7c-4.22,0-6,.59-7.78,1.78l-.19-.2c2.9-4.48,5.14-11.67,5.14-23,0-10.67.13-17.86-.6-25.37H387c2.37,16.28,5.08,29.53,8.37,38.56,2.57,5.07,5.08,6.72,9.16,6.72,3.17,0,4.49-.92,4.49-2.5S408.13,94.85,406.42,89.25Z"/><path class="cls-1" d="M427.77,105.07l-.13-.27c3.69-1.91,6.33-5.27,6.33-34.6V34.87c0-29.33-2.64-32.69-6.33-34.61l.13-.26a44.5,44.5,0,0,0,12.85,1.91h.73A44.5,44.5,0,0,0,454.2,0l.13.26C450.64,2.18,448,5.54,448,34.87V77.65c.46,22.47,2.9,25.44,6.26,27.15l-.13.27a44.22,44.22,0,0,0-12.86-1.91h-.66A44.16,44.16,0,0,0,427.77,105.07Z"/><path class="cls-1" d="M500.28,2.18c4,0,6.79-.66,11.2-1.92l.13.33C508.19,2.5,503.9,4.48,504.43,35l.92,59.32c.26,7.58-3.62,10.62-11.07,10.62-8.44,0-12.72-2.84-14-11l-7.58-83.77c-.72-4.29-1.84-5.34-3.82-5.34-2.17,0-3.56,2.24-2.7,7l3,61c1.72,27.55,4.22,29.6,8.7,31.9l-.13.27a35.86,35.86,0,0,0-11.53-1.91,29.07,29.07,0,0,0-10.55,1.91l-.13-.27c3.3-1.84,7.71-5,7.71-32l.07-61.5c-.07-7.64,3-11,10.81-11,7.64,0,12.79,3.1,14.3,13.65l7.45,81.4c.86,4.68,2.11,5.47,3.82,5.47,2.05,0,4.16-2,3-7.25l-3.95-58.79c-2.37-28.35-5.47-32.3-9.23-34.15l.07-.33A30.7,30.7,0,0,0,500.28,2.18Z"/><path class="cls-1" d="M552.08,1.78A9.66,9.66,0,0,0,557.49.26l.33.2c-3.17,4.48-5.21,11.34-5.21,22,0,9.29,0,15.36.66,21.68h-.86a183.12,183.12,0,0,0-8-34.47c-2.31-5.21-4.42-7.51-7.32-7.51-5.47,0-5.8,4-5.8,47.78,7.58-2,8.3-5.73,11.86-27.94h.8c-1.45,18.12-1.92,40.2,0,59.38h-.8c-3.56-24-4.28-28.14-11.86-30.05,0,44.82.13,51.68,5.08,51.68,3.09,0,5.2-2.44,7.71-7.85a215.76,215.76,0,0,0,9.62-39.55h.92a233.63,233.63,0,0,0-1.58,27.69c0,10.15,1.25,17.27,3.76,21.48l-.2.14a9.92,9.92,0,0,0-5.4-1.52c-4.09,0-8.64,1.52-14.37,1.52-13,0-22.09-6.79-22.09-53.59C514.77,6.53,524.27.26,536,.26,542.39.26,547.53,1.78,552.08,1.78Z"/></g></g></svg>