<svg xmlns="http://www.w3.org/2000/svg" viewBox="0 0 1013.77 192.25"><defs><style>.cls-1{fill:none;stroke:#fff;}</style></defs><title>2</title><g id="Layer_2" data-name="Layer 2"><g id="Layer_1-2" data-name="Layer 1"><path class="cls-1" d="M.91,191.28l-.24-.48c6.7-3.47,11.48-9.57,11.48-62.8V63.88C12.15,10.64,7.37,4.54.67,1.07L.91.59C10,3.1,16.34,4.06,24.23,4.06s17.11-3,24.41-3c23.21,0,36.72,5.38,36.72,18.54,0,11.13-6.1,20.58-6.1,31.46,0,22.14,10.53,32.66,10.53,44.39s-9.33,23.68-9.33,45.34C80.46,151.68,89,159,89,169.27,89,185.78,73.88,191,49.12,191c-7.06,0-15.79-3.23-23.69-3.23h-1.2C16.34,187.81,10,188.77.91,191.28ZM62.64,179c0-9.09-11.85-19.5-11.85-36.13,0-34.81,34.93-31.34,34.93-47.13,0-16.27-35.53-19.5-35.53-46.78,0-16.51,11.37-26.91,11.37-36,0-6-3.23-8.25-12.44-8.25-7.18,0-11.49,3.11-11.49,56.22V130c0,48.81,3.11,57.3,11.73,57.3C59.17,187.33,62.64,185.18,62.64,179Z"/><path class="cls-1" d="M167.07,3.82a17.5,17.5,0,0,0,9.81-2.75l.59.36C171.73,9.56,168,22,168,41.38c0,16.87,0,27.88,1.2,39.36h-1.55c-3.47-25.6-9.46-48.33-14.48-62.56-4.19-9.45-8-13.64-13.28-13.64-9.93,0-10.53,7.3-10.53,86.73,13.76-3.59,15.08-10.41,21.54-50.72h1.43c-2.63,32.9-3.47,73,0,107.78h-1.43c-6.46-43.54-7.78-51.08-21.54-54.55,0,81.35.24,93.79,9.22,93.79,5.62,0,9.45-4.42,14-14.23a391.06,391.06,0,0,0,17.47-71.78h1.67a422,422,0,0,0-2.87,50.24c0,18.43,2.27,31.35,6.82,39l-.36.24a18,18,0,0,0-9.81-2.75c-7.42,0-15.67,2.75-26.08,2.75-23.56,0-40.07-12.32-40.07-97.26,0-81.35,17.22-92.71,38.52-92.71C149.48,1.07,158.81,3.82,167.07,3.82Z"/><path class="cls-1" d="M226.16,162.57,183.93,13.75a26.36,26.36,0,0,1-1.31-6.82c0-1.91.83-2.87,5.62-2.87h52c7.41,0,10.76-1,14-3l.36.24c-5.86,8.73-9.21,22.37-9.21,41.51,0,18.3,0,30.51,1.2,43.55h-1.56c-4.9-28.95-10.53-52.88-16.27-68.43-4.07-8.26-6.94-11.13-11-11.13-3.47,0-4.55,1.68-4.55,4.55,0,4.19,1.91,10.76,5.14,21.41l38.88,142.84c1.32,4.31,2.28,7.54,2.28,9.45s-.6,2.75-4.67,2.75H195.54c-7.66,0-10.89,1.08-14.12,3.23l-.36-.36c5.26-8.13,9.33-21.17,9.33-41.75,0-19.38.24-32.42-1.08-46.06h1.56c4.31,29.55,9.21,53.6,15.19,70,4.67,9.21,9.21,12.2,16.63,12.2,5.74,0,8.14-1.68,8.14-4.55S229.27,172.74,226.16,162.57Z"/><path class="cls-1" d="M300.44,191.28l-.24-.48c6.23-3.23,12.09-9.57,14.36-58.38l4.79-115.2c.83-10.41,4.42-16.15,14.95-16.15s19.5,4.19,20.22,22.73c.24,4.9,3.94,144.27,4.3,149.54.6,8.13,3.23,10,6.82,10,4.19,0,6.34-3.11,6.46-12.08,0-5,2-147.62,2-152.64.23-13.76,4.66-17.59,15.79-17.59,12.2,0,17.7,6.82,18.54,18.66l5.86,108.15c3,52.27,8.14,59.45,15.07,62.92l-.12.48c-10.52-3-18.3-3.47-27.51-3.47a80.57,80.57,0,0,0-24.88,3.47l-.24-.48c6.7-3.23,10.64-7.42,10.64-62.8V18.18c0-7.54-1.19-10.29-4.18-10.29S378.32,10,378.2,18.42c0,5.5-.83,148.58-.83,151.09-.12,14.83-5.63,20.21-20.22,20.21s-19.62-4.42-20.46-18.78c-.24-2.51-4.54-151.81-4.54-153.72-.48-7.42-1.92-9.33-4.55-9.33s-4.31,2.75-4.19,10.05l-.12,114.36c.12,44.86,5.86,54.08,14,58.5l-.24.48c-8-2.27-13.16-3.47-20-3.47C311.45,187.81,307.5,188.77,300.44,191.28Z"/><path class="cls-1" d="M462.06,190.68c-7.3,0-10.17-2.51-16.15-2.51-5.51,0-9.69,1-17,3.47l-.24-.48c6.58-3.47,11.48-9.69,16-63.28l7.9-106.23c2.27-16.63,6-20.22,16.86-20.22,12.33,0,18.79,5.62,20.46,18.42l8.49,108c4.07,51.68,9.57,60.05,16,63.28l-.23.48a94.38,94.38,0,0,0-26.8-3.47C478.69,188.17,470.79,190.68,462.06,190.68Zm-8.26-62.44c-.12,4.54-.24,8.73-.36,12.8h17.83c0-4.07-.12-8.38-.24-13L468,17.94c-.36-5.51-2.27-8-5.39-8-3.34,0-5.38,2.16-5.74,11.61Zm17.47,22.61H453.44c.12,24.28,2.64,37.32,8.5,37.32C467,188.17,470.91,181.23,471.27,150.85Z"/><path class="cls-1" d="M604.05,95.46c0,11.6-9.33,23.8-9.33,45.34,0,10.88,8.5,18.18,8.5,28.47,0,16.51-15.91,21.77-41.28,21.77-14.23,0-20-6.7-20-15.43,0-7.06,3.47-18.9,3.47-24.41,0-2-.6-3-2.16-3-4.66,0-12.44,21.3-18.06,42.83h-1.08c1.32-20.93,5.62-36.13,5.62-59.34,0-31-4.66-34.21-9.69-37.2l.12-.48c8.62,2.39,14.36,3.35,21.78,3.35h1.19c7.78,0,14-1,23.09-3.35l.24.48c-6.94,3.11-11.24,6.94-11.24,37.44,0,20.34-9.69,35.77-9.69,43.79,0,7.3,4.78,11.72,16.38,11.72,10.65,0,15.08-2,15.08-8.49,0-9.09-11.85-19.5-11.85-36.13C565.17,108,600,111.49,600,95.7c0-16.27-35.41-19.5-35.41-46.78,0-16.87,11.36-27.75,11.36-37.08,0-5.39-2.27-7.18-6.34-7.18-5,0-10.53,4.66-15.19,14.71-4.31,13.88-11.37,36-15,61.49l-1.55-.12c1-10.88,1.08-21.17,1.08-38,0-19.38-3.59-33.26-8.86-41.39l.48-.24a17.07,17.07,0,0,0,9.33,2.75c7.42,0,15.43-2.75,27-2.75,20.58,0,32.78,5.38,32.78,18.54,0,12.44-6.22,23.21-6.22,35.41C593.53,75,604.05,83.73,604.05,95.46Z"/><path class="cls-1" d="M639,190.68c-7.3,0-10.17-2.51-16.15-2.51-5.5,0-9.69,1-17,3.47l-.23-.48c6.58-3.47,11.48-9.69,16-63.28l7.89-106.23C631.8,5,635.51,1.43,646.4,1.43c12.32,0,18.78,5.62,20.46,18.42l8.49,108c4.07,51.68,9.57,60.05,16,63.28l-.24.48a94.38,94.38,0,0,0-26.8-3.47C655.61,188.17,647.72,190.68,639,190.68Zm-8.25-62.44c-.12,4.54-.24,8.73-.36,12.8h17.82c0-4.07-.12-8.38-.24-13L645,17.94c-.36-5.51-2.27-8-5.38-8-3.35,0-5.38,2.16-5.74,11.61Zm17.46,22.61H630.37c.12,24.28,2.63,37.32,8.49,37.32C643.89,188.17,647.83,181.23,648.19,150.85Z"/><path class="cls-1" d="M738.27,162.57,696,13.75a26.81,26.81,0,0,1-1.31-6.82c0-1.91.83-2.87,5.62-2.87h52c7.41,0,10.76-1,14-3l.36.24c-5.86,8.73-9.21,22.37-9.21,41.51,0,18.3,0,30.51,1.2,43.55h-1.56c-4.9-28.95-10.52-52.88-16.27-68.43-4.06-8.26-6.93-11.13-11-11.13-3.47,0-4.55,1.68-4.55,4.55,0,4.19,1.92,10.76,5.15,21.41l38.88,142.84c1.31,4.31,2.27,7.54,2.27,9.45s-.6,2.75-4.67,2.75H707.65c-7.66,0-10.89,1.08-14.12,3.23l-.36-.36c5.27-8.13,9.33-21.17,9.33-41.75,0-19.38.24-32.42-1.07-46.06H703c4.31,29.55,9.21,53.6,15.19,70,4.67,9.21,9.22,12.2,16.63,12.2,5.74,0,8.14-1.68,8.14-4.55S741.38,172.74,738.27,162.57Z"/><path class="cls-1" d="M777,191.28l-.24-.48c6.7-3.47,11.48-9.57,11.48-62.8V63.88c0-53.24-4.78-59.34-11.48-62.81L777,.59c9.09,2.51,15.43,3.47,23.33,3.47h1.31c7.9,0,14.24-1,23.33-3.47l.24.48c-6.7,3.47-11.49,9.57-11.49,62.81v77.63c.84,40.8,5.27,46.18,11.37,49.29l-.24.48c-9.09-2.51-15.43-3.47-23.33-3.47h-1.19C792.46,187.81,786.12,188.77,777,191.28Z"/><path class="cls-1" d="M867.35,1.07l.12.6C860.65,5,855,12.2,850.72,63.64l-7.18,106.7c-2,9.58,1.79,13.16,5.5,13.16,3.11,0,5.39-1.43,6.94-9.93L869.5,25.83c2.75-19.14,12.08-24.76,26-24.76,14.23,0,19.74,6.1,19.62,20l.12,111.61c0,49.05,8,54.79,14,58.14l-.24.48c-8-2.75-12.92-3.47-19.14-3.47-7.29,0-12.56,1-20.93,3.47l-.24-.48c8.13-4.19,12.68-7.89,15.79-57.9l5.38-110.78c1.56-8.61-.95-12.68-4.9-12.68-3.59,0-5.62,1.92-6.94,9.69L884.21,171.18C881.94,185.9,874.16,191,858.85,191c-13.52,0-20.57-5.5-20.1-19.26l1.68-107.67c1-55.38-6.82-59-13-62.44l.24-.6c8,2.27,13,3.47,20.34,3.47C854,4.54,859.09,3.82,867.35,1.07Z"/><path class="cls-1" d="M1002.64,3.82a17.5,17.5,0,0,0,9.81-2.75l.6.36c-5.74,8.13-9.45,20.58-9.45,40,0,16.87,0,27.88,1.2,39.36h-1.56c-3.47-25.6-9.45-48.33-14.48-62.56-4.18-9.45-8-13.64-13.27-13.64-9.93,0-10.53,7.3-10.53,86.73,13.76-3.59,15.07-10.41,21.53-50.72h1.44c-2.63,32.9-3.47,73,0,107.78h-1.44C980,104.79,978.72,97.25,965,93.78c0,81.35.24,93.79,9.21,93.79,5.62,0,9.45-4.42,14-14.23a390.36,390.36,0,0,0,17.46-71.78h1.68a419.87,419.87,0,0,0-2.87,50.24c0,18.43,2.27,31.35,6.82,39l-.36.24a18,18,0,0,0-9.81-2.75c-7.42,0-15.67,2.75-26.08,2.75-23.57,0-40.08-12.32-40.08-97.26,0-81.35,17.23-92.71,38.52-92.71C985.06,1.07,994.39,3.82,1002.64,3.82Z"/></g></g></svg>