<svg xmlns="http://www.w3.org/2000/svg" viewBox="0 0 1013.6 192.25"><defs><style>.cls-1{fill:none;stroke:#fff;}</style></defs><title>5</title><g id="Layer_2" data-name="Layer 2"><g id="Layer_1-2" data-name="Layer 1"><path class="cls-1" d="M66.06,187.81h-1.2c-7.9,0-16.63,3.23-23.69,3.23-24.76,0-39.83-5.26-39.83-21.77,0-10.29,8.49-17.59,8.49-28.47C9.83,119.14.5,107.06.5,95.46S11,73.21,11,51.07c0-10.88-6.1-20.33-6.1-31.46C4.93,6.45,18.44,1.07,41.65,1.07c7.3,0,16.39,3,24.41,3S80.29,3.1,89.38.59l.24.48c-6.7,3.47-11.48,9.57-11.48,62.81V128c0,53.23,4.78,59.33,11.48,62.8l-.24.48C80.29,188.77,74,187.81,66.06,187.81Zm-25.13-.48c8.62,0,11.73-8.49,11.73-57.3V60.88c0-53.11-4.31-56.22-11.49-56.22-9.21,0-12.44,2.27-12.44,8.25,0,9.1,11.37,19.5,11.37,36C40.1,76.2,4.57,79.43,4.57,95.7c0,15.79,34.93,12.32,34.93,47.13,0,16.63-11.84,27-11.84,36.13C27.66,185.18,31.12,187.33,40.93,187.33Z"/><path class="cls-1" d="M166.9,3.82a17.5,17.5,0,0,0,9.81-2.75l.6.36c-5.75,8.13-9.45,20.58-9.45,40,0,16.87,0,27.88,1.19,39.36H167.5C164,55.14,158.05,32.41,153,18.18c-4.18-9.45-8-13.64-13.28-13.64-9.93,0-10.52,7.3-10.52,86.73,13.75-3.59,15.07-10.41,21.53-50.72h1.44c-2.64,32.9-3.47,73,0,107.78h-1.44c-6.46-43.54-7.78-51.08-21.53-54.55,0,81.35.24,93.79,9.21,93.79,5.62,0,9.45-4.42,14-14.23a390.24,390.24,0,0,0,17.47-71.78h1.67a422,422,0,0,0-2.87,50.24c0,18.43,2.28,31.35,6.82,39l-.36.24a18,18,0,0,0-9.81-2.75c-7.41,0-15.67,2.75-26.07,2.75-23.57,0-40.08-12.32-40.08-97.26,0-81.35,17.23-92.71,38.52-92.71C149.31,1.07,158.65,3.82,166.9,3.82Z"/><path class="cls-1" d="M226,162.57,183.76,13.75a26.81,26.81,0,0,1-1.31-6.82c0-1.91.84-2.87,5.62-2.87h52c7.42,0,10.77-1,14-3l.35.24c-5.86,8.73-9.21,22.37-9.21,41.51,0,18.3,0,30.51,1.2,43.55h-1.56c-4.9-28.95-10.52-52.88-16.27-68.43-4.06-8.26-6.93-11.13-11-11.13-3.47,0-4.55,1.68-4.55,4.55,0,4.19,1.92,10.76,5.15,21.41L257.1,175.61c1.31,4.31,2.27,7.54,2.27,9.45s-.6,2.75-4.67,2.75H195.37c-7.66,0-10.89,1.08-14.12,3.23l-.36-.36c5.27-8.13,9.33-21.17,9.33-41.75,0-19.38.24-32.42-1.07-46.06h1.55c4.31,29.55,9.21,53.6,15.2,70,4.66,9.21,9.21,12.2,16.62,12.2,5.75,0,8.14-1.68,8.14-4.55S229.1,172.74,226,162.57Z"/><path class="cls-1" d="M412.37,187.81c-6.82,0-12,1.2-20,3.47l-.24-.48c8.14-4.42,13.88-13.64,14-58.5L406,17.94c.12-7.3-1.56-10-4.19-10s-4.07,1.91-4.54,9.33c0,1.91-4.31,151.21-4.55,153.72-.84,14.36-5.86,18.78-20.46,18.78s-20.09-5.38-20.21-20.21c0-2.51-.84-145.59-.84-151.09-.12-8.38-2-10.53-4.91-10.53s-4.18,2.75-4.18,10.29V128c0,55.38,3.94,59.57,10.64,62.8l-.24.48a80.57,80.57,0,0,0-24.88-3.47c-9.21,0-17,.48-27.51,3.47l-.12-.48c6.94-3.47,12.08-10.65,15.07-62.92L321,19.73c.84-11.84,6.34-18.66,18.54-18.66,11.13,0,15.56,3.83,15.8,17.59,0,5,2,147.62,2,152.64.12,9,2.27,12.08,6.46,12.08,3.59,0,6.22-1.91,6.82-10,.36-5.27,4.07-144.64,4.3-149.54.72-18.54,9.81-22.73,20.22-22.73s14.12,5.74,15,16.15l4.78,115.2c2.27,48.81,8.14,55.15,14.36,58.38l-.24.48C421.94,188.77,418,187.81,412.37,187.81Z"/><path class="cls-1" d="M461.89,190.68c-7.3,0-10.17-2.51-16.15-2.51-5.5,0-9.69,1-17,3.47l-.24-.48c6.58-3.47,11.49-9.69,16-63.28l7.9-106.23c2.27-16.63,6-20.22,16.87-20.22,12.32,0,18.78,5.62,20.45,18.42l8.5,108c4.06,51.68,9.57,60.05,16,63.28l-.24.48a94.38,94.38,0,0,0-26.8-3.47C478.52,188.17,470.62,190.68,461.89,190.68Zm-8.26-62.44c-.11,4.54-.23,8.73-.35,12.8H471.1c0-4.07-.12-8.38-.24-13l-3-110.06c-.36-5.51-2.27-8-5.38-8-3.35,0-5.39,2.16-5.74,11.61Zm17.47,22.61H453.28c.12,24.28,2.63,37.32,8.49,37.32C466.79,188.17,470.74,181.23,471.1,150.85Z"/><path class="cls-1" d="M530.43,55c0-12.2-6.22-23-6.22-35.41,0-13.16,12.21-18.54,32.78-18.54,11.61,0,19.62,2.75,27,2.75a17.07,17.07,0,0,0,9.33-2.75l.48.24c-5.27,8.13-8.86,22-8.86,41.39,0,16.87.12,27.16,1.08,38l-1.55.12c-3.59-25.48-10.65-47.61-15-61.49-4.66-10-10.17-14.71-15.19-14.71-4.07,0-6.34,1.79-6.34,7.18,0,9.33,11.36,20.21,11.36,37.08C559.38,76.2,524,79.43,524,95.7c0,15.79,34.82,12.32,34.82,47.13,0,16.63-11.85,27-11.85,36.13,0,6.46,4.43,8.49,15.08,8.49,11.6,0,16.39-4.42,16.39-11.72,0-8-9.69-23.45-9.69-43.79,0-30.5-4.31-34.33-11.25-37.44l.24-.48c9.09,2.39,15.31,3.35,23.09,3.35H582c7.42,0,13.16-1,21.78-3.35l.12.48c-5,3-9.69,6.22-9.69,37.2,0,23.21,4.3,38.41,5.62,59.34h-1.08c-5.62-21.53-13.4-42.83-18.06-42.83-1.56,0-2.16,1-2.16,3,0,5.51,3.47,17.35,3.47,24.41,0,8.73-5.74,15.43-20,15.43-25.37,0-41.28-5.26-41.28-21.77,0-10.29,8.5-17.59,8.5-28.47,0-21.54-9.33-33.74-9.33-45.34S530.43,75,530.43,55Z"/><path class="cls-1" d="M638.81,190.68c-7.29,0-10.16-2.51-16.15-2.51-5.5,0-9.69,1-17,3.47l-.24-.48c6.58-3.47,11.48-9.69,16-63.28l7.89-106.23c2.28-16.63,6-20.22,16.87-20.22,12.32,0,18.78,5.62,20.46,18.42l8.49,108c4.07,51.68,9.57,60.05,16,63.28l-.24.48a94.31,94.31,0,0,0-26.79-3.47C655.44,188.17,647.55,190.68,638.81,190.68Zm-8.25-62.44c-.12,4.54-.24,8.73-.36,12.8H648c0-4.07-.12-8.38-.24-13l-3-110.06c-.36-5.51-2.28-8-5.39-8-3.35,0-5.38,2.16-5.74,11.61ZM648,150.85H630.2c.12,24.28,2.63,37.32,8.49,37.32C643.72,188.17,647.67,181.23,648,150.85Z"/><path class="cls-1" d="M738.1,162.57,695.88,13.75a26.5,26.5,0,0,1-1.32-6.82c0-1.91.84-2.87,5.62-2.87h52c7.42,0,10.77-1,14-3l.36.24c-5.87,8.73-9.22,22.37-9.22,41.51,0,18.3,0,30.51,1.2,43.55H757c-4.91-28.95-10.53-52.88-16.27-68.43-4.07-8.26-6.94-11.13-11-11.13-3.47,0-4.55,1.68-4.55,4.55,0,4.19,1.92,10.76,5.15,21.41l38.88,142.84c1.31,4.31,2.27,7.54,2.27,9.45s-.6,2.75-4.67,2.75H707.48c-7.66,0-10.89,1.08-14.12,3.23l-.36-.36c5.27-8.13,9.33-21.17,9.33-41.75,0-19.38.24-32.42-1.07-46.06h1.55c4.31,29.55,9.21,53.6,15.2,70,4.66,9.21,9.21,12.2,16.62,12.2,5.75,0,8.14-1.68,8.14-4.55S741.21,172.74,738.1,162.57Z"/><path class="cls-1" d="M776.86,191.28l-.24-.48c6.7-3.47,11.48-9.57,11.48-62.8V63.88c0-53.24-4.78-59.34-11.48-62.81l.24-.48C786,3.1,792.29,4.06,800.19,4.06h1.31c7.9,0,14.24-1,23.33-3.47l.24.48c-6.7,3.47-11.48,9.57-11.48,62.81v77.63c.83,40.8,5.26,46.18,11.36,49.29l-.24.48c-9.09-2.51-15.43-3.47-23.33-3.47h-1.19C792.29,187.81,786,188.77,776.86,191.28Z"/><path class="cls-1" d="M908.45,4.54c7.3,0,12.32-1.2,20.34-3.47l.24.6c-6.22,3.47-14,7.06-13,62.44l1.67,107.67c.48,13.76-6.58,19.26-20.1,19.26-15.31,0-23.08-5.14-25.36-19.86l-13.76-152c-1.31-7.77-3.34-9.69-6.93-9.69-4,0-6.46,4.07-4.91,12.68L852,132.9c3.12,50,7.66,53.71,15.8,57.9l-.24.48c-8.38-2.51-13.64-3.47-20.94-3.47-6.22,0-11.12.72-19.14,3.47l-.24-.48c6-3.35,14-9.09,14-58.14l.12-111.61c-.12-13.88,5.38-20,19.62-20,13.87,0,23.21,5.62,26,24.76l13.51,147.74c1.56,8.5,3.83,9.93,6.94,9.93,3.71,0,7.54-3.58,5.51-13.16L905.7,63.64C901.39,12.2,895.77,5,889,1.67l.12-.6C897.32,3.82,902.47,4.54,908.45,4.54Z"/><path class="cls-1" d="M1002.47,3.82a17.5,17.5,0,0,0,9.81-2.75l.6.36c-5.74,8.13-9.45,20.58-9.45,40,0,16.87,0,27.88,1.2,39.36h-1.56c-3.47-25.6-9.45-48.33-14.47-62.56-4.19-9.45-8-13.64-13.28-13.64-9.93,0-10.53,7.3-10.53,86.73,13.76-3.59,15.07-10.41,21.53-50.72h1.44c-2.63,32.9-3.47,73,0,107.78h-1.44c-6.46-43.54-7.77-51.08-21.53-54.55,0,81.35.24,93.79,9.21,93.79,5.62,0,9.45-4.42,14-14.23a390.36,390.36,0,0,0,17.46-71.78h1.68a419.87,419.87,0,0,0-2.87,50.24c0,18.43,2.27,31.35,6.82,39l-.36.24a18,18,0,0,0-9.81-2.75c-7.42,0-15.67,2.75-26.08,2.75-23.57,0-40.08-12.32-40.08-97.26,0-81.35,17.23-92.71,38.52-92.71C984.89,1.07,994.22,3.82,1002.47,3.82Z"/></g></g></svg>