<svg xmlns="http://www.w3.org/2000/svg" viewBox="0 0 1013.55 192.25"><defs><style>.cls-1{fill:none;stroke:#fff;}</style></defs><title>6</title><g id="Layer_2" data-name="Layer 2"><g id="Layer_1-2" data-name="Layer 1"><path class="cls-1" d="M.91,191.28l-.24-.48c6.7-3.47,11.48-9.57,11.48-62.8V63.88C12.15,10.64,7.37,4.54.67,1.07L.91.59C10,3.1,16.34,4.06,24.23,4.06s17.11-3,24.41-3c23.21,0,36.72,5.38,36.72,18.54,0,11.13-6.1,20.58-6.1,31.46,0,22.14,10.53,32.66,10.53,44.39s-9.33,23.68-9.33,45.34C80.46,151.68,89,159,89,169.27,89,185.78,73.88,191,49.12,191c-7.06,0-15.79-3.23-23.69-3.23h-1.2C16.34,187.81,10,188.77.91,191.28ZM62.64,179c0-9.09-11.85-19.5-11.85-36.13,0-34.81,34.93-31.34,34.93-47.13,0-16.27-35.53-19.5-35.53-46.78,0-16.51,11.37-26.91,11.37-36,0-6-3.23-8.25-12.44-8.25-7.18,0-11.49,3.11-11.49,56.22V130c0,48.81,3.11,57.3,11.73,57.3C59.17,187.33,62.64,185.18,62.64,179Z"/><path class="cls-1" d="M139,1.07c21.3,0,38.52,11.36,38.52,92.71,0,84.94-16.5,97.26-40.07,97.26-10.41,0-18.66-2.75-26.08-2.75a18,18,0,0,0-9.81,2.75l-.36-.24c4.55-7.65,6.82-20.57,6.82-39a422,422,0,0,0-2.87-50.24h1.67a391.06,391.06,0,0,0,17.47,71.78c4.55,9.81,8.37,14.23,14,14.23,9,0,9.21-12.44,9.21-93.79-13.76,3.47-15.08,11-21.54,54.55h-1.43c3.47-34.81,2.63-74.88,0-107.78h1.43c6.46,40.31,7.78,47.13,21.54,50.72,0-79.43-.6-86.73-10.53-86.73-5.26,0-9.09,4.19-13.28,13.64-5,14.23-11,37-14.47,62.56h-1.56c1.2-11.48,1.2-22.49,1.2-39.36,0-19.37-3.71-31.82-9.45-39.95l.6-.36a17.49,17.49,0,0,0,9.8,2.75C118,3.82,127.35,1.07,139,1.07Z"/><path class="cls-1" d="M209.77,180.51c0,2.87,2.39,4.55,8.14,4.55,7.41,0,12-3,16.62-12.2,6-16.39,10.89-40.44,15.2-70h1.55c-1.31,13.64-1.07,26.68-1.07,46.06,0,20.58,4.06,33.62,9.33,41.75l-.36.36c-3.23-2.15-6.46-3.23-14.12-3.23H185.73c-4.07,0-4.67-1-4.67-2.75s1-5.14,2.27-9.45L222.21,32.77c3.23-10.65,5.15-17.22,5.15-21.41,0-2.87-1.08-4.55-4.55-4.55-4.07,0-6.94,2.87-11,11.13-5.74,15.55-11.36,39.48-16.26,68.43H194c1.2-13,1.2-25.25,1.2-43.55,0-19.14-3.35-32.78-9.21-41.51l.35-.24c3.23,2,6.58,3,14,3h52c4.78,0,5.62,1,5.62,2.87a26.81,26.81,0,0,1-1.31,6.82L214.44,162.57C211.33,172.74,209.77,177.52,209.77,180.51Z"/><path class="cls-1" d="M300.44,191.28l-.24-.48c6.23-3.23,12.09-9.57,14.36-58.38l4.79-115.2c.83-10.41,4.42-16.15,14.95-16.15s19.5,4.19,20.22,22.73c.24,4.9,3.94,144.27,4.3,149.54.6,8.13,3.23,10,6.82,10,4.19,0,6.34-3.11,6.46-12.08,0-5,2-147.62,2-152.64.23-13.76,4.66-17.59,15.79-17.59,12.2,0,17.7,6.82,18.54,18.66l5.86,108.15c3,52.27,8.14,59.45,15.07,62.92l-.12.48c-10.52-3-18.3-3.47-27.51-3.47a80.57,80.57,0,0,0-24.88,3.47l-.24-.48c6.7-3.23,10.64-7.42,10.64-62.8V18.18c0-7.54-1.19-10.29-4.18-10.29S378.32,10,378.2,18.42c0,5.5-.83,148.58-.83,151.09-.12,14.83-5.63,20.21-20.22,20.21s-19.62-4.42-20.46-18.78c-.24-2.51-4.54-151.81-4.54-153.72-.48-7.42-1.92-9.33-4.55-9.33s-4.31,2.75-4.19,10.05l-.12,114.36c.12,44.86,5.86,54.08,14,58.5l-.24.48c-8-2.27-13.16-3.47-20-3.47C311.45,187.81,307.5,188.77,300.44,191.28Z"/><path class="cls-1" d="M455.72,188.17a94.38,94.38,0,0,0-26.8,3.47l-.24-.48c6.46-3.23,12-11.6,16-63.28l8.49-108c1.68-12.8,8.14-18.42,20.46-18.42,10.89,0,14.6,3.59,16.87,20.22l7.89,106.23c4.55,53.59,9.45,59.81,16,63.28l-.23.48c-7.3-2.51-11.49-3.47-17-3.47-6,0-8.85,2.51-16.15,2.51C472.34,190.68,464.45,188.17,455.72,188.17Zm30.5-166.64c-.36-9.45-2.39-11.61-5.74-11.61-3.11,0-5,2.51-5.38,8l-3,110.06c-.12,4.66-.24,9-.24,13h17.82c-.12-4.07-.24-8.26-.36-12.8Zm-5,166.64c5.86,0,8.37-13,8.49-37.32H471.87C472.23,181.23,476.17,188.17,481.2,188.17Z"/><path class="cls-1" d="M530.6,55c0-12.2-6.22-23-6.22-35.41,0-13.16,12.2-18.54,32.78-18.54,11.6,0,19.62,2.75,27,2.75a17.07,17.07,0,0,0,9.33-2.75l.48.24c-5.27,8.13-8.86,22-8.86,41.39,0,16.87.12,27.16,1.08,38l-1.56.12C581.09,55.38,574,33.25,569.72,19.37c-4.67-10-10.17-14.71-15.19-14.71-4.07,0-6.34,1.79-6.34,7.18,0,9.33,11.36,20.21,11.36,37.08,0,27.28-35.41,30.51-35.41,46.78,0,15.79,34.81,12.32,34.81,47.13,0,16.63-11.84,27-11.84,36.13,0,6.46,4.43,8.49,15.07,8.49,11.61,0,16.39-4.42,16.39-11.72,0-8-9.69-23.45-9.69-43.79,0-30.5-4.3-34.33-11.24-37.44l.24-.48c9.09,2.39,15.31,3.35,23.09,3.35h1.19c7.42,0,13.16-1,21.77-3.35l.12.48c-5,3-9.69,6.22-9.69,37.2,0,23.21,4.31,38.41,5.63,59.34h-1.08c-5.62-21.53-13.4-42.83-18.06-42.83-1.56,0-2.16,1-2.16,3,0,5.51,3.47,17.35,3.47,24.41,0,8.73-5.74,15.43-20,15.43-25.36,0-41.27-5.26-41.27-21.77,0-10.29,8.5-17.59,8.5-28.47,0-21.54-9.34-33.74-9.34-45.34S530.6,75,530.6,55Z"/><path class="cls-1" d="M632.64,188.17a94.38,94.38,0,0,0-26.8,3.47l-.23-.48c6.46-3.23,12-11.6,16-63.28l8.49-108c1.67-12.8,8.13-18.42,20.46-18.42,10.88,0,14.59,3.59,16.86,20.22l7.9,106.23c4.55,53.59,9.45,59.81,16,63.28l-.24.48c-7.3-2.51-11.48-3.47-17-3.47-6,0-8.85,2.51-16.15,2.51C649.27,190.68,641.37,188.17,632.64,188.17ZM663.15,21.53c-.36-9.45-2.4-11.61-5.75-11.61-3.11,0-5,2.51-5.38,8L649,128c-.12,4.66-.24,9-.24,13h17.83c-.12-4.07-.24-8.26-.36-12.8Zm-5,166.64c5.86,0,8.38-13,8.5-37.32H648.79C649.15,181.23,653.1,188.17,658.12,188.17Z"/><path class="cls-1" d="M721.88,180.51c0,2.87,2.4,4.55,8.14,4.55,7.41,0,12-3,16.63-12.2,6-16.39,10.88-40.44,15.19-70h1.55c-1.31,13.64-1.07,26.68-1.07,46.06,0,20.58,4.06,33.62,9.33,41.75l-.36.36c-3.23-2.15-6.46-3.23-14.12-3.23H697.84c-4.07,0-4.67-1-4.67-2.75s1-5.14,2.27-9.45L734.32,32.77c3.23-10.65,5.15-17.22,5.15-21.41,0-2.87-1.08-4.55-4.55-4.55-4.07,0-6.94,2.87-11,11.13-5.75,15.55-11.37,39.48-16.27,68.43h-1.56c1.2-13,1.2-25.25,1.2-43.55,0-19.14-3.35-32.78-9.21-41.51l.36-.24c3.23,2,6.57,3,14,3h52c4.79,0,5.62,1,5.62,2.87a26.81,26.81,0,0,1-1.31,6.82L726.55,162.57C723.44,172.74,721.88,177.52,721.88,180.51Z"/><path class="cls-1" d="M777,191.28l-.24-.48c6.7-3.47,11.48-9.57,11.48-62.8V63.88c0-53.24-4.78-59.34-11.48-62.81L777,.59c9.09,2.51,15.43,3.47,23.33,3.47h1.31c7.9,0,14.24-1,23.33-3.47l.24.48c-6.7,3.47-11.49,9.57-11.49,62.81v77.63c.84,40.8,5.27,46.18,11.37,49.29l-.24.48c-9.09-2.51-15.43-3.47-23.33-3.47h-1.19C792.46,187.81,786.12,188.77,777,191.28Z"/><path class="cls-1" d="M908.62,4.54c7.29,0,12.32-1.2,20.33-3.47l.24.6c-6.22,3.47-14,7.06-13,62.44l1.68,107.67c.48,13.76-6.58,19.26-20.1,19.26-15.31,0-23.09-5.14-25.36-19.86l-13.76-152c-1.31-7.77-3.35-9.69-6.94-9.69-3.94,0-6.46,4.07-4.9,12.68l5.38,110.78c3.11,50,7.66,53.71,15.79,57.9l-.24.48c-8.37-2.51-13.63-3.47-20.93-3.47-6.22,0-11.13.72-19.14,3.47l-.24-.48c6-3.35,14-9.09,14-58.14l.12-111.61c-.12-13.88,5.38-20,19.61-20,13.88,0,23.21,5.62,26,24.76L900.6,173.57c1.56,8.5,3.83,9.93,6.94,9.93,3.71,0,7.54-3.58,5.5-13.16l-7.17-106.7c-4.31-51.44-9.93-58.62-16.75-62l.12-.6C897.49,3.82,902.64,4.54,908.62,4.54Z"/><path class="cls-1" d="M974.53,1.07c21.29,0,38.52,11.36,38.52,92.71,0,84.94-16.51,97.26-40.08,97.26-10.4,0-18.66-2.75-26.08-2.75a18,18,0,0,0-9.8,2.75l-.36-.24c4.54-7.65,6.82-20.57,6.82-39a419.57,419.57,0,0,0-2.88-50.24h1.68a391.18,391.18,0,0,0,17.46,71.78c4.55,9.81,8.38,14.23,14,14.23,9,0,9.21-12.44,9.21-93.79-13.75,3.47-15.07,11-21.53,54.55h-1.44c3.47-34.81,2.64-74.88,0-107.78h1.44C968,80.86,969.27,87.68,983,91.27c0-79.43-.6-86.73-10.52-86.73-5.27,0-9.1,4.19-13.28,13.64-5,14.23-11,37-14.48,62.56h-1.55c1.19-11.48,1.19-22.49,1.19-39.36,0-19.37-3.71-31.82-9.45-39.95l.6-.36a17.5,17.5,0,0,0,9.81,2.75C953.59,3.82,962.92,1.07,974.53,1.07Z"/></g></g></svg>