<svg xmlns="http://www.w3.org/2000/svg" viewBox="0 0 192.25 1013.77"><defs><style>.cls-1{fill:none;stroke:#fff;}</style></defs><title>R1</title><g id="Layer_2" data-name="Layer 2"><g id="Layer_1-2" data-name="Layer 1"><path class="cls-1" d="M1,.91,1.45.67C4.92,7.37,11,12.15,64.26,12.15h64.12c53.23,0,59.33-4.78,62.8-11.48l.48.24c-2.51,9.09-3.47,15.43-3.47,23.32s3,17.11,3,24.41c0,23.21-5.38,36.72-18.54,36.72-11.12,0-20.57-6.1-31.46-6.1-22.13,0-32.66,10.53-44.38,10.53s-23.69-9.33-45.34-9.33C40.57,80.46,33.27,89,23,89,6.48,89,1.21,73.88,1.21,49.12c0-7.06,3.23-15.79,3.23-23.69v-1.2C4.44,16.34,3.49,10,1,.91ZM13.3,62.64c9.09,0,19.5-11.85,36.12-11.85,34.82,0,31.35,34.93,47.14,34.93,16.27,0,19.5-35.53,46.77-35.53,16.51,0,26.92,11.37,36,11.37,6,0,8.26-3.23,8.26-12.44,0-7.18-3.12-11.49-56.23-11.49H62.22c-48.8,0-57.3,3.11-57.3,11.73C4.92,59.17,7.08,62.64,13.3,62.64Z"/><path class="cls-1" d="M188.43,167.07a17.5,17.5,0,0,0,2.75,9.81l-.35.59c-8.14-5.74-20.58-9.45-40-9.45-16.87,0-27.87,0-39.36,1.2v-1.55c25.6-3.47,48.33-9.46,62.57-14.48,9.45-4.19,13.63-8,13.63-13.28,0-9.93-7.29-10.53-86.73-10.53,3.59,13.76,10.41,15.08,50.73,21.54v1.43c-32.9-2.63-73-3.47-107.79,0v-1.43c43.55-6.46,51.08-7.78,54.55-21.54-81.35,0-93.79.24-93.79,9.22,0,5.62,4.43,9.45,14.24,14A391.06,391.06,0,0,0,90.7,170.06v1.67a422.31,422.31,0,0,0-50.25-2.87c-18.42,0-31.34,2.27-39,6.82l-.24-.36A18,18,0,0,0,4,165.51c0-7.42-2.75-15.67-2.75-26.08,0-23.56,12.33-40.07,97.26-40.07,81.35,0,92.71,17.22,92.71,38.52C191.18,149.48,188.43,158.81,188.43,167.07Z"/><path class="cls-1" d="M11.74,209.77c-2.87,0-4.55,2.39-4.55,8.14,0,7.41,3,12,12.21,16.62,16.39,6,40.43,10.89,70,15.2v1.55c-13.64-1.31-26.68-1.07-46.06-1.07-20.57,0-33.61,4.06-41.75,9.33l-.36-.36c2.16-3.23,3.23-6.46,3.23-14.12V185.73c0-4.07,1-4.67,2.75-4.67s5.15,1,9.46,2.27l142.83,38.88c10.65,3.23,17.23,5.15,21.42,5.15,2.87,0,4.54-1.08,4.54-4.55,0-4.07-2.87-6.94-11.12-11-15.56-5.74-39.48-11.36-68.43-16.26V194c13,1.2,25.24,1.2,43.54,1.2,19.14,0,32.78-3.35,41.51-9.21l.24.35c-2,3.23-3,6.58-3,14v52c0,4.78-.95,5.62-2.87,5.62a26.88,26.88,0,0,1-6.82-1.31L29.69,214.44C19.52,211.33,14.73,209.77,11.74,209.77Z"/><path class="cls-1" d="M1,300.44l.48-.24c3.23,6.23,9.57,12.09,58.38,14.36L175,319.35c10.41.83,16.15,4.42,16.15,14.95s-4.18,19.5-22.73,20.22c-4.9.24-144.27,3.94-149.53,4.3-8.14.6-10.05,3.23-10.05,6.82C8.87,369.83,12,372,21,372.1c5,0,147.62,2,152.65,2,13.76.23,17.58,4.66,17.58,15.79,0,12.2-6.81,17.7-18.66,18.54L64.38,414.33c-52.28,3-59.46,8.14-62.93,15.07L1,429.28c3-10.52,3.47-18.3,3.47-27.51A80.27,80.27,0,0,0,1,376.89l.48-.24c3.23,6.7,7.42,10.64,62.81,10.64H174.08c7.53,0,10.29-1.19,10.29-4.18s-2.16-4.79-10.53-4.91c-5.5,0-148.58-.83-151.09-.83-14.84-.12-20.22-5.63-20.22-20.22S7,337.53,21.31,336.69c2.51-.24,151.81-4.54,153.72-4.54,7.42-.48,9.34-1.92,9.34-4.55s-2.76-4.31-10.05-4.19L60,323.29c-44.86.12-54.07,5.86-58.5,14L1,337.05c2.28-8,3.47-13.16,3.47-20C4.44,311.45,3.49,307.5,1,300.44Z"/><path class="cls-1" d="M1.57,462.06c0-7.3,2.51-10.17,2.51-16.15,0-5.51-1-9.69-3.46-17l.47-.24c3.47,6.58,9.69,11.48,63.29,16l106.23,7.9c16.63,2.27,20.22,6,20.22,16.86,0,12.33-5.63,18.79-18.43,20.46l-108,8.49c-51.68,4.07-60.06,9.57-63.29,16l-.47-.23a94.35,94.35,0,0,0,3.46-26.8C4.08,478.69,1.57,470.79,1.57,462.06ZM64,453.8l-12.8-.36v17.83c4.07,0,8.37-.12,13-.24l110.06-3c5.5-.36,8-2.27,8-5.39,0-3.34-2.15-5.38-11.6-5.74ZM41.41,471.27V453.44c-24.29.12-37.33,2.64-37.33,8.5C4.08,467,11,470.91,41.41,471.27Z"/><path class="cls-1" d="M137.23,530.6c12.2,0,23-6.22,35.41-6.22,13.16,0,18.54,12.2,18.54,32.78,0,11.6-2.75,19.62-2.75,27a17.07,17.07,0,0,0,2.75,9.33l-.24.48c-8.13-5.27-22-8.86-41.39-8.86-16.86,0-27.15.12-38,1.08l-.12-1.56c25.48-3.58,47.61-10.64,61.49-14.95,10.05-4.67,14.72-10.17,14.72-15.19,0-4.07-1.8-6.34-7.18-6.34-9.33,0-20.22,11.36-37.09,11.36-27.27,0-30.5-35.41-46.77-35.41C80.77,524.14,84.24,559,49.42,559c-16.62,0-27-11.84-36.12-11.84-6.46,0-8.5,4.43-8.5,15.07,0,11.61,4.43,16.39,11.73,16.39,8,0,23.44-9.69,43.78-9.69,30.51,0,34.33-4.3,37.44-11.24l.48.24C95.84,567,94.88,573.19,94.88,581v1.19c0,7.42,1,13.16,3.35,21.77l-.48.12c-3-5-6.22-9.69-37.2-9.69-23.21,0-38.4,4.31-59.34,5.63v-1.08C22.75,593.29,44,585.51,44,580.85c0-1.56-1-2.16-3-2.16-5.5,0-17.35,3.47-24.4,3.47-8.74,0-15.44-5.74-15.44-20,0-25.36,5.27-41.27,21.78-41.27,10.28,0,17.58,8.5,28.47,8.5,21.53,0,33.73-9.34,45.34-9.34S117.25,530.6,137.23,530.6Z"/><path class="cls-1" d="M1.57,639c0-7.3,2.51-10.17,2.51-16.15,0-5.5-1-9.69-3.46-17l.47-.23c3.47,6.58,9.69,11.48,63.29,16l106.23,7.89c16.63,2.27,20.22,6,20.22,16.87,0,12.32-5.63,18.78-18.43,20.46l-108,8.49c-51.68,4.07-60.06,9.57-63.29,16l-.47-.24a94.35,94.35,0,0,0,3.46-26.8C4.08,655.61,1.57,647.72,1.57,639ZM64,630.73l-12.8-.36v17.82c4.07,0,8.37-.12,13-.24l110.06-3c5.5-.36,8-2.27,8-5.38,0-3.35-2.15-5.38-11.6-5.74ZM41.41,648.19V630.37c-24.29.12-37.33,2.63-37.33,8.49C4.08,643.89,11,647.83,41.41,648.19Z"/><path class="cls-1" d="M11.74,721.88c-2.87,0-4.55,2.4-4.55,8.14,0,7.41,3,12,12.21,16.63,16.39,6,40.43,10.88,70,15.19v1.55c-13.64-1.31-26.68-1.07-46.06-1.07-20.57,0-33.61,4.06-41.75,9.33l-.36-.36c2.16-3.23,3.23-6.46,3.23-14.12V697.84c0-4.07,1-4.67,2.75-4.67s5.15,1,9.46,2.27l142.83,38.88c10.65,3.23,17.23,5.15,21.42,5.15,2.87,0,4.54-1.08,4.54-4.55,0-4.07-2.87-6.94-11.12-11-15.56-5.75-39.48-11.37-68.43-16.27v-1.56c13,1.2,25.24,1.2,43.54,1.2,19.14,0,32.78-3.35,41.51-9.21l.24.36c-2,3.23-3,6.57-3,14v52c0,4.79-.95,5.62-2.87,5.62a26.88,26.88,0,0,1-6.82-1.31L29.69,726.55C19.52,723.44,14.73,721.88,11.74,721.88Z"/><path class="cls-1" d="M1,777l.48-.24c3.47,6.7,9.57,11.48,62.81,11.48h64.12c53.23,0,59.33-4.78,62.8-11.48l.48.24c-2.51,9.09-3.47,15.43-3.47,23.33v1.31c0,7.9,1,14.24,3.47,23.33l-.48.24c-3.47-6.7-9.57-11.49-62.8-11.49H50.74C10,814.59,4.56,819,1.45,825.12L1,824.88c2.52-9.09,3.47-15.43,3.47-23.33v-1.19C4.44,792.46,3.49,786.12,1,777Z"/><path class="cls-1" d="M187.71,908.62c0,7.29,1.2,12.32,3.47,20.33l-.59.24c-3.47-6.22-7.06-14-62.45-13L20.47,917.83c-13.75.48-19.26-6.58-19.26-20.1,0-15.31,5.15-23.09,19.86-25.36l152.05-13.76c7.78-1.31,9.69-3.35,9.69-6.94,0-3.94-4.07-6.46-12.68-4.9L59.35,852.15c-50,3.11-53.71,7.66-57.9,15.79L1,867.7c2.52-8.37,3.47-13.63,3.47-20.93,0-6.22-.71-11.13-3.47-19.14l.48-.24c3.35,6,9.09,14,58.14,14l111.62.12c13.87-.12,20,5.38,20,19.61,0,13.88-5.62,23.21-24.76,26L18.68,900.6c-8.49,1.56-9.93,3.83-9.93,6.94,0,3.71,3.59,7.54,13.16,5.5l106.71-7.17c51.44-4.31,58.62-9.93,62-16.75l.59.12C188.43,897.49,187.71,902.64,187.71,908.62Z"/><path class="cls-1" d="M188.43,1002.64a17.5,17.5,0,0,0,2.75,9.81l-.35.6c-8.14-5.74-20.58-9.45-40-9.45-16.87,0-27.87,0-39.36,1.2v-1.56c25.6-3.47,48.33-9.45,62.57-14.48,9.45-4.18,13.63-8,13.63-13.27,0-9.93-7.29-10.53-86.73-10.53,3.59,13.76,10.41,15.07,50.73,21.53v1.44c-32.9-2.63-73-3.47-107.79,0v-1.44C87.47,980,95,978.72,98.47,965c-81.35,0-93.79.24-93.79,9.21,0,5.62,4.43,9.45,14.24,14a390.36,390.36,0,0,0,71.78,17.46v1.68a420.19,420.19,0,0,0-50.25-2.87c-18.42,0-31.34,2.27-39,6.82l-.24-.36A18,18,0,0,0,4,1001.09c0-7.42-2.75-15.67-2.75-26.08,0-23.57,12.33-40.08,97.26-40.08,81.35,0,92.71,17.23,92.71,38.52C191.18,985.06,188.43,994.39,188.43,1002.64Z"/></g></g></svg>