<svg xmlns="http://www.w3.org/2000/svg" viewBox="0 0 192.25 1013.6"><defs><style>.cls-1{fill:none;stroke:#fff;}</style></defs><title>R5</title><g id="Layer_2" data-name="Layer 2"><g id="Layer_1-2" data-name="Layer 1"><path class="cls-1" d="M4.44,66.06v-1.2c0-7.9-3.23-16.63-3.23-23.69C1.21,16.41,6.48,1.34,23,1.34c10.28,0,17.58,8.49,28.47,8.49C73.11,9.83,85.19.5,96.8.5S119.05,11,141.18,11c10.89,0,20.34-6.1,31.46-6.1,13.16,0,18.54,13.51,18.54,36.72,0,7.3-3,16.39-3,24.41s1,14.23,3.47,23.32l-.48.24c-3.47-6.7-9.57-11.48-62.8-11.48H64.26C11,78.14,4.92,82.92,1.45,89.62L1,89.38C3.49,80.29,4.44,74,4.44,66.06Zm.48-25.13c0,8.62,8.5,11.73,57.3,11.73h69.15c53.11,0,56.23-4.31,56.23-11.49,0-9.21-2.28-12.44-8.26-12.44-9.09,0-19.5,11.37-36,11.37-27.27,0-30.5-35.53-46.77-35.53C80.77,4.57,84.24,39.5,49.42,39.5c-16.62,0-27-11.84-36.12-11.84C7.08,27.66,4.92,31.12,4.92,40.93Z"/><path class="cls-1" d="M188.43,166.9a17.5,17.5,0,0,0,2.75,9.81l-.35.6c-8.14-5.75-20.58-9.45-40-9.45-16.87,0-27.87,0-39.36,1.19V167.5c25.6-3.47,48.33-9.45,62.57-14.48,9.45-4.18,13.63-8,13.63-13.28,0-9.93-7.29-10.52-86.73-10.52,3.59,13.75,10.41,15.07,50.73,21.53v1.44c-32.9-2.64-73-3.47-107.79,0v-1.44C87.47,144.29,95,143,98.47,129.22c-81.35,0-93.79.24-93.79,9.21,0,5.62,4.43,9.45,14.24,14A390.24,390.24,0,0,0,90.7,169.89v1.67a422.31,422.31,0,0,0-50.25-2.87c-18.42,0-31.34,2.28-39,6.82l-.24-.36A18,18,0,0,0,4,165.34c0-7.41-2.75-15.67-2.75-26.07,0-23.57,12.33-40.08,97.26-40.08,81.35,0,92.71,17.23,92.71,38.52C191.18,149.31,188.43,158.65,188.43,166.9Z"/><path class="cls-1" d="M29.69,226,178.5,183.76a26.88,26.88,0,0,1,6.82-1.31c1.92,0,2.87.84,2.87,5.62v52c0,7.42,1,10.77,3,14l-.24.35c-8.73-5.86-22.37-9.21-41.51-9.21-18.3,0-30.5,0-43.54,1.2v-1.56c29-4.9,52.87-10.52,68.43-16.27,8.25-4.06,11.12-6.93,11.12-11,0-3.47-1.67-4.55-4.54-4.55-4.19,0-10.77,1.92-21.42,5.15L16.65,257.1c-4.31,1.31-7.54,2.27-9.46,2.27s-2.75-.6-2.75-4.67V195.37c0-7.66-1.07-10.89-3.23-14.12l.36-.36c8.14,5.27,21.18,9.33,41.75,9.33,19.38,0,32.42.24,46.06-1.07v1.55c-29.55,4.31-53.59,9.21-70,15.2-9.21,4.66-12.21,9.21-12.21,16.62,0,5.75,1.68,8.14,4.55,8.14S19.52,229.1,29.69,226Z"/><path class="cls-1" d="M4.44,412.37c0-6.82-1.19-12-3.47-20l.48-.24c4.43,8.14,13.64,13.88,58.5,14L174.32,406c7.29.12,10.05-1.56,10.05-4.19s-1.92-4.07-9.34-4.54c-1.91,0-151.21-4.31-153.72-4.55C7,391.91,2.53,386.89,2.53,372.29s5.38-20.09,20.22-20.21c2.51,0,145.59-.84,151.09-.84,8.37-.12,10.53-2,10.53-4.91s-2.76-4.18-10.29-4.18H64.26c-55.39,0-59.58,3.94-62.81,10.64L1,352.55a80.27,80.27,0,0,0,3.47-24.88c0-9.21-.48-17-3.47-27.51l.48-.12C4.92,307,12.1,312.12,64.38,315.11L172.52,321c11.85.84,18.66,6.34,18.66,18.54,0,11.13-3.82,15.56-17.58,15.8-5,0-147.62,2-152.65,2-9,.12-12.08,2.27-12.08,6.46,0,3.59,1.91,6.22,10.05,6.82,5.26.36,144.63,4.07,149.53,4.3,18.55.72,22.73,9.81,22.73,20.22s-5.74,14.12-16.15,15l-115.2,4.78C11,417.15,4.68,423,1.45,429.24L1,429C3.49,421.94,4.44,418,4.44,412.37Z"/><path class="cls-1" d="M1.57,461.89c0-7.3,2.51-10.17,2.51-16.15,0-5.5-1-9.69-3.46-17l.47-.24c3.47,6.58,9.69,11.49,63.29,16l106.23,7.9c16.63,2.27,20.22,6,20.22,16.87,0,12.32-5.63,18.78-18.43,20.45l-108,8.5c-51.68,4.06-60.06,9.57-63.29,16l-.47-.24a94.35,94.35,0,0,0,3.46-26.8C4.08,478.52,1.57,470.62,1.57,461.89ZM64,453.63c-4.55-.11-8.73-.23-12.8-.35V471.1c4.07,0,8.37-.12,13-.24l110.06-3c5.5-.36,8-2.27,8-5.38,0-3.35-2.15-5.39-11.6-5.74ZM41.41,471.1V453.28c-24.29.12-37.33,2.63-37.33,8.49C4.08,466.79,11,470.74,41.41,471.1Z"/><path class="cls-1" d="M137.23,530.43c12.2,0,23-6.22,35.41-6.22,13.16,0,18.54,12.21,18.54,32.78,0,11.61-2.75,19.62-2.75,27a17.07,17.07,0,0,0,2.75,9.33l-.24.48c-8.13-5.27-22-8.86-41.39-8.86-16.86,0-27.15.12-38,1.08l-.12-1.55c25.48-3.59,47.61-10.65,61.49-15,10.05-4.66,14.72-10.17,14.72-15.19,0-4.07-1.8-6.34-7.18-6.34-9.33,0-20.22,11.36-37.09,11.36-27.27,0-30.5-35.41-46.77-35.41-15.79,0-12.32,34.82-47.14,34.82-16.62,0-27-11.85-36.12-11.85-6.46,0-8.5,4.43-8.5,15.08,0,11.6,4.43,16.39,11.73,16.39,8,0,23.44-9.69,43.78-9.69,30.51,0,34.33-4.31,37.44-11.25l.48.24c-2.39,9.09-3.35,15.31-3.35,23.09V582c0,7.42,1,13.16,3.35,21.78l-.48.12c-3-5-6.22-9.69-37.2-9.69-23.21,0-38.4,4.3-59.34,5.62v-1.08C22.75,593.12,44,585.34,44,580.68c0-1.56-1-2.16-3-2.16-5.5,0-17.35,3.47-24.4,3.47-8.74,0-15.44-5.74-15.44-20,0-25.37,5.27-41.28,21.78-41.28,10.28,0,17.58,8.5,28.47,8.5,21.53,0,33.73-9.33,45.34-9.33S117.25,530.43,137.23,530.43Z"/><path class="cls-1" d="M1.57,638.81c0-7.29,2.51-10.16,2.51-16.15,0-5.5-1-9.69-3.46-17l.47-.24c3.47,6.58,9.69,11.48,63.29,16l106.23,7.89c16.63,2.28,20.22,6,20.22,16.87,0,12.32-5.63,18.78-18.43,20.46l-108,8.49c-51.68,4.07-60.06,9.57-63.29,16L.62,691a94.29,94.29,0,0,0,3.46-26.79C4.08,655.44,1.57,647.55,1.57,638.81ZM64,630.56l-12.8-.36V648c4.07,0,8.37-.12,13-.24l110.06-3c5.5-.36,8-2.28,8-5.39,0-3.35-2.15-5.38-11.6-5.74ZM41.41,648V630.2c-24.29.12-37.33,2.63-37.33,8.49C4.08,643.72,11,647.67,41.41,648Z"/><path class="cls-1" d="M29.69,738.1,178.5,695.88a26.58,26.58,0,0,1,6.82-1.32c1.92,0,2.87.84,2.87,5.62v52c0,7.42,1,10.77,3,14l-.24.36c-8.73-5.87-22.37-9.22-41.51-9.22-18.3,0-30.5,0-43.54,1.2V757c29-4.91,52.87-10.53,68.43-16.27,8.25-4.07,11.12-6.94,11.12-11,0-3.47-1.67-4.55-4.54-4.55-4.19,0-10.77,1.92-21.42,5.15L16.65,769.21c-4.31,1.31-7.54,2.27-9.46,2.27s-2.75-.6-2.75-4.67V707.48c0-7.66-1.07-10.89-3.23-14.12l.36-.36c8.14,5.27,21.18,9.33,41.75,9.33,19.38,0,32.42.24,46.06-1.07v1.55c-29.55,4.31-53.59,9.21-70,15.2-9.21,4.66-12.21,9.21-12.21,16.62,0,5.75,1.68,8.14,4.55,8.14S19.52,741.21,29.69,738.1Z"/><path class="cls-1" d="M1,776.86l.48-.24c3.47,6.7,9.57,11.48,62.81,11.48h64.12c53.23,0,59.33-4.78,62.8-11.48l.48.24c-2.51,9.09-3.47,15.43-3.47,23.33v1.31c0,7.9,1,14.24,3.47,23.33l-.48.24c-3.47-6.7-9.57-11.48-62.8-11.48H50.74C10,814.42,4.56,818.85,1.45,825L1,824.71c2.52-9.09,3.47-15.43,3.47-23.33v-1.19C4.44,792.29,3.49,786,1,776.86Z"/><path class="cls-1" d="M187.71,908.45c0,7.3,1.2,12.32,3.47,20.34l-.59.24c-3.47-6.22-7.06-14-62.45-13L20.47,917.66c-13.75.48-19.26-6.58-19.26-20.1,0-15.31,5.15-23.08,19.86-25.36l152.05-13.76c7.78-1.31,9.69-3.34,9.69-6.93,0-4-4.07-6.46-12.68-4.91L59.35,852c-50,3.12-53.71,7.66-57.9,15.8L1,867.54c2.52-8.38,3.47-13.64,3.47-20.94,0-6.22-.71-11.12-3.47-19.14l.48-.24c3.35,6,9.09,14,58.14,14l111.62.12c13.87-.12,20,5.38,20,19.62,0,13.87-5.62,23.21-24.76,26L18.68,900.43c-8.49,1.56-9.93,3.83-9.93,6.94,0,3.71,3.59,7.54,13.16,5.51l106.71-7.18c51.44-4.31,58.62-9.93,62-16.75l.59.12C188.43,897.32,187.71,902.47,187.71,908.45Z"/><path class="cls-1" d="M188.43,1002.47a17.5,17.5,0,0,0,2.75,9.81l-.35.6c-8.14-5.74-20.58-9.45-40-9.45-16.87,0-27.87,0-39.36,1.2v-1.56c25.6-3.47,48.33-9.45,62.57-14.47,9.45-4.19,13.63-8,13.63-13.28,0-9.93-7.29-10.53-86.73-10.53,3.59,13.76,10.41,15.07,50.73,21.53v1.44c-32.9-2.63-73-3.47-107.79,0v-1.44c43.55-6.46,51.08-7.77,54.55-21.53-81.35,0-93.79.24-93.79,9.21,0,5.62,4.43,9.45,14.24,14a390.36,390.36,0,0,0,71.78,17.46v1.68a420.19,420.19,0,0,0-50.25-2.87c-18.42,0-31.34,2.27-39,6.82l-.24-.36A18,18,0,0,0,4,1000.92c0-7.42-2.75-15.67-2.75-26.08,0-23.57,12.33-40.08,97.26-40.08,81.35,0,92.71,17.23,92.71,38.52C191.18,984.89,188.43,994.22,188.43,1002.47Z"/></g></g></svg>